<?xml version="1.0" encoding="utf-8"?>
<!-- Generator: Adobe Illustrator 24.0.1, SVG Export Plug-In . SVG Version: 6.00 Build 0)  -->
<svg version="1.1" id="图层_1" xmlns="http://www.w3.org/2000/svg" xmlns:xlink="http://www.w3.org/1999/xlink" x="0px" y="0px"
	 viewBox="0 0 128 128" style="enable-background:new 0 0 128 128;" xml:space="preserve">
<style type="text/css">
	.st0{fill:#007dd1;}
</style>
<g>
	<path class="st0" d="M64,2C29.81,2,2,29.81,2,64c0,34.19,27.81,62,62,62c34.19,0,62-27.81,62-62C126,29.81,98.19,2,64,2z
		 M64,120.41C32.89,120.41,7.59,95.11,7.59,64S32.89,7.59,64,7.59S120.41,32.89,120.41,64S95.11,120.41,64,120.41z"/>
	<path class="st0" d="M64,16.52c12.28,0,23.45,4.73,31.89,12.41l3.99-3.99C90.42,16.25,77.82,10.94,64,10.94
		c-13.56,0-25.95,5.12-35.34,13.53l3.98,3.98C41.01,21.05,51.98,16.52,64,16.52z"/>
	<path class="st0" d="M25.52,27.52C16.49,37.04,10.94,49.88,10.94,64c0,13.82,5.32,26.42,14.01,35.88l3.99-3.99
		C21.25,87.45,16.52,76.28,16.52,64c0-12.58,4.95-24,12.97-32.51L25.52,27.52z"/>
	<path class="st0" d="M64,111.48c-12.32,0-23.53-4.76-31.98-12.49l-3.98,3.98c9.46,8.74,22.1,14.09,35.96,14.09
		c14.12,0,26.96-5.56,36.48-14.58l-3.97-3.97C88,106.52,76.58,111.48,64,111.48z"/>
	<path class="st0" d="M117.06,64c0-13.86-5.35-26.5-14.09-35.96l-3.98,3.98c7.73,8.45,12.49,19.65,12.49,31.98
		c0,12.02-4.53,22.99-11.92,31.36l3.98,3.98C111.94,89.95,117.06,77.56,117.06,64z"/>
	 <animateTransform attributeType="XML" attributeName="transform" begin="0s" dur="25s" type="rotate" from="0 64 64" to="360 64 64" repeatCount="indefinite" />
</g>
</svg>
