<svg xmlns="http://www.w3.org/2000/svg" width="25" height="25" viewBox="0 0 25 25">
  <defs>
    <style>
      .cls-1 {
        fill: #e60a0a;
        fill-rule: evenodd;
      }
    </style>
  </defs>
  <path id="形状_17" data-name="形状 17" class="cls-1" d="M967.6,714.753H965.4l0.371,10.34h1.466Zm-2.578,14.013a1.482,1.482,0,1,0,1.482-1.482,1.482,1.482,0,0,0-1.482,1.482h0Zm0,0,1.482-17.207A10.942,10.942,0,1,1,955.559,722.5,10.942,10.942,0,0,1,966.5,711.559m0-1.559A12.5,12.5,0,1,0,979,722.5,12.507,12.507,0,0,0,966.5,710h0Zm0,0" transform="translate(-954 -710)"/>
</svg>
