<?xml version="1.0" standalone="no"?><!DOCTYPE svg PUBLIC "-//W3C//DTD SVG 1.1//EN" "http://www.w3.org/Graphics/SVG/1.1/DTD/svg11.dtd"><svg t="1581563888624" class="icon" viewBox="0 0 1024 1024" version="1.1" xmlns="http://www.w3.org/2000/svg" p-id="3428" xmlns:xlink="http://www.w3.org/1999/xlink" width="128" height="128"><defs><style type="text/css"></style></defs><path d="M512 640c-29.013333 0-51.2-22.186667-51.2-51.2s22.186667-51.2 51.2-51.2 51.2 22.186667 51.2 51.2-22.186667 51.2-51.2 51.2z m0-68.266667c-10.24 0-17.066667 6.826667-17.066667 17.066667s6.826667 17.066667 17.066667 17.066667 17.066667-6.826667 17.066667-17.066667-6.826667-17.066667-17.066667-17.066667z" fill="#EB4AF4" p-id="3429"></path><path d="M512 605.866667c-18.773333 0-34.133333-15.36-34.133333-34.133334v-204.8c0-18.773333 15.36-34.133333 34.133333-34.133333s34.133333 15.36 34.133333 34.133333v204.8c0 18.773333-15.36 34.133333-34.133333 34.133334zM512 247.466667c-18.773333 0-34.133333-15.36-34.133333-34.133334v-68.266666c0-18.773333 15.36-34.133333 34.133333-34.133334s34.133333 15.36 34.133333 34.133334v68.266666c0 18.773333-15.36 34.133333-34.133333 34.133334z" fill="#EB4AF4" p-id="3430"></path><path d="M580.266667 145.066667h-136.533334c-18.773333 0-34.133333-15.36-34.133333-34.133334s15.36-34.133333 34.133333-34.133333h136.533334c18.773333 0 34.133333 15.36 34.133333 34.133333s-15.36 34.133333-34.133333 34.133334z" fill="#EB4AF4" p-id="3431"></path><path d="M512 947.2c-206.506667 0-375.466667-168.96-375.466667-375.466667s168.96-375.466667 375.466667-375.466666 375.466667 168.96 375.466667 375.466666-168.96 375.466667-375.466667 375.466667z m0-682.666667c-168.96 0-307.2 138.24-307.2 307.2s138.24 307.2 307.2 307.2 307.2-138.24 307.2-307.2-138.24-307.2-307.2-307.2z" fill="#3793DF" p-id="3432"></path></svg>