<?xml version="1.0" encoding="utf-8"?>
<!-- Generator: Adobe Illustrator 24.0.1, SVG Export Plug-In . SVG Version: 6.00 Build 0)  -->
<svg version="1.1" id="图层_1" xmlns="http://www.w3.org/2000/svg" xmlns:xlink="http://www.w3.org/1999/xlink" x="0px" y="0px"
	 viewBox="0 0 128 128" style="enable-background:new 0 0 128 128;" xml:space="preserve">
<style type="text/css">
	.st0{fill:#FF7F00;}
	.st1{fill:#FFFFFF; transform-origin:center; animation: zhuan 2s infinite;}
	@keyframes zhuan{
		0%{transform: scale(1);}
		80%{transform: scale(1);}
		85%{transform: scale(1.5);}
		90%{transform: scale(0.85);}
		95%{transform: scale(1.25);}
		100%{transform: scale(1);}
	}
</style>
<circle class="st0" cx="64" cy="64" r="61.2"/>
<path class="st1" d="M64,28.4c-3.9,0-7.1,3.2-7.1,7.1l0,0v35.6c0,3.9,3.2,7.1,7.1,7.1s7.1-3.2,7.1-7.1V35.6
	C71.1,31.6,67.9,28.4,64,28.4C64,28.4,64,28.4,64,28.4z M64,99.6c3.9,0,7.1-3.2,7.1-7.1c0-3.9-3.2-7.1-7.1-7.1c0,0,0,0,0,0
	c-3.9,0-7.1,3.2-7.1,7.1C56.9,96.4,60.1,99.6,64,99.6z"  />
</svg>
