<svg id="图层_1" data-name="图层 1" xmlns="http://www.w3.org/2000/svg" viewBox="0 0 368 368"><defs><style>.cls-1{fill:#5e8fff;}.cls-2{fill:#fff;}</style></defs><title>ban</title><rect class="cls-1" x="0.47" y="0.47" width="368" height="368"/><path class="cls-2" d="M61.68,77.66H25.46V43.57H132.69V77.66H97.9v78.83h30.18v34.09H97.9V269q16-6.74,36.22-16.69v37.28A763.75,763.75,0,0,1,29,328.34l-8.88-35.51a428,428,0,0,0,41.54-10.65V190.57h-33V156.48h33ZM188.08,19.78h35.86V179.92q-1.42,115-75.27,168.3L121,323.72q66-44.74,67.11-143.8ZM141.21,80.14h33.38v34.09q-.72,79.18-22.72,116.11l-25.92-23.08q14.55-28.4,15.27-93Zm126.05-5.68H236.37V40.73H342.89V74.46H303.48v88.06h34.09V196.6H303.48V302.42h44.38V336.5H221.11V302.42h46.16V196.6H236.37V162.52h30.89Z"/></svg>