<svg id="图层_1" data-name="图层 1" xmlns="http://www.w3.org/2000/svg" viewBox="0 0 368 368"><defs><style>.cls-1{fill:#ff8484;}.cls-2{fill:#fff;}</style></defs><title>xiu</title><rect class="cls-1" x="0.47" y="0.47" width="368" height="368"/><path class="cls-2" d="M60.08,165Q44.81,183.83,29.9,199.09L17.83,159.32q52.54-58.94,78.47-141l35.15,16.33A392.32,392.32,0,0,1,97,111.39V349.64H60.08ZM124.7,88h79.54V23h36.57V88h88.06v35.86h-66q30.53,79.89,87.35,135.28l-24.85,33.38Q276,232.11,240.81,131.27v218H204.24V132.69q-33.38,103-82,162.27l-21.66-35.15q51.48-51.13,82-136H124.7Z"/></svg>