<?xml version="1.0" standalone="no"?>
<!DOCTYPE svg PUBLIC "-//W3C//DTD SVG 1.1//EN" "http://www.w3.org/Graphics/SVG/1.1/DTD/svg11.dtd" >
<svg xmlns="http://www.w3.org/2000/svg">
<metadata>
Created by FontForge 20120731 at Thu Jan 12 14:41:49 2017
 By admin
</metadata>
<defs>
<font id="iconfont" horiz-adv-x="1024" >
  <font-face 
    font-family="iconfont"
    font-weight="500"
    font-stretch="normal"
    units-per-em="1024"
    panose-1="2 0 6 3 0 0 0 0 0 0"
    ascent="896"
    descent="-128"
    x-height="792"
    bbox="-57 -212 1358.74 949"
    underline-thickness="0"
    underline-position="0"
    unicode-range="U+0078-E952"
  />
<missing-glyph 
 />
    <glyph glyph-name=".notdef" 
 />
    <glyph glyph-name=".notdef" 
 />
    <glyph glyph-name=".null" horiz-adv-x="0" 
 />
    <glyph glyph-name="nonmarkingreturn" horiz-adv-x="341" 
 />
    <glyph glyph-name="x" unicode="x" horiz-adv-x="1001" 
d="M281 543q-27 -1 -53 -1h-83q-18 0 -36.5 -6t-32.5 -18.5t-23 -32t-9 -45.5v-76h912v41q0 16 -0.5 30t-0.5 18q0 13 -5 29t-17 29.5t-31.5 22.5t-49.5 9h-133v-97h-438v97zM955 310v-52q0 -23 0.5 -52t0.5 -58t-10.5 -47.5t-26 -30t-33 -16t-31.5 -4.5q-14 -1 -29.5 -0.5
t-29.5 0.5h-32l-45 128h-439l-44 -128h-29h-34q-20 0 -45 1q-25 0 -41 9.5t-25.5 23t-13.5 29.5t-4 30v167h911zM163 247q-12 0 -21 -8.5t-9 -21.5t9 -21.5t21 -8.5q13 0 22 8.5t9 21.5t-9 21.5t-22 8.5zM316 123q-8 -26 -14 -48q-5 -19 -10.5 -37t-7.5 -25t-3 -15t1 -14.5
t9.5 -10.5t21.5 -4h37h67h81h80h64h36q23 0 34 12t2 38q-5 13 -9.5 30.5t-9.5 34.5q-5 19 -11 39h-368zM336 498v228q0 11 2.5 23t10 21.5t20.5 15.5t34 6h188q31 0 51.5 -14.5t20.5 -52.5v-227h-327z" />
    <glyph glyph-name="QQ" unicode="&#xe63f;" 
d="M971 143l-2 18l-3 17l-3 9l-2 9l-3 9l-4 10l-3 10l-4 9l-8 16l-6 14l-7 13l-5 11l-7 11l-5 9l-10 15l-12 19l-3 5l-1 2v1l2 7l3 6l2 11l2 6v6v5v5v6l-1 4l-2 10l-2 9l-3 8l-3 8l-4 7l-3 7l-3 6l-6 9l-2 3v2l-3 18l-1 11l-2 14l-3 15l-4 17l-3 9l-2 8l-3 9l-3 10l-3 9
l-4 10l-8 19l-5 9l-6 10l-5 9l-6 10l-7 10l-7 8l-8 10l-8 8l-8 8l-9 9l-5 3l-5 4l-11 7l-12 8l-12 7l-13 7l-13 6l-13 6l-14 4l-15 4l-13 4l-15 3l-13 4l-15 1l-14 2l-15 2h-15h-14h-14l-14 -1l-14 -2l-14 -2l-13 -2l-14 -3l-13 -3l-13 -4l-12 -4l-12 -4l-12 -6l-12 -5
l-10 -6l-10 -6l-10 -7l-10 -8l-8 -7l-12 -12l-10 -10l-10 -11l-9 -11l-9 -11l-7 -10l-7 -11l-4 -5l-3 -6l-7 -10l-5 -10l-5 -10l-4 -10l-4 -9l-3 -9l-3 -9l-4 -8l-4 -16l-3 -15l-1 -12l-2 -11v-8v-7v-6l-3 -3l-3 -4l-2 -4l-2 -4l-2 -9l-3 -9v-7l-1 -6v-6l-6 -8l-4 -9l-3 -8
l-2 -7l-2 -7l-2 -6v-6v-6v-5l1 -4l2 -7l1 -6l-3 -3l-9 -6l-12 -11l-7 -7l-7 -6l-5 -5l-4 -5l-9 -9l-8 -10l-7 -8l-8 -11l-7 -11l-7 -12l-7 -11l-5 -11l-5 -11l-4 -10l-4 -11l-3 -11l-3 -11l-3 -10l-2 -10l-1 -9l-2 -10l-1 -18v-17v-7l1 -7l2 -13l1 -6l2 -5l2 -6l1 -3l3 -7
l2 -2l2 -3h1h1h1h7l7 2l7 3l6 4l6 4l5 5l6 5l5 6l5 6l4 6l4 4l2 6l5 8l2 4l1 2v3l1 2h1l2 1h1v-1h1h1l3 -12l2 -10l4 -10l4 -9l4 -9l5 -8l4 -9l4 -7l5 -7l3 -6l10 -12l9 -11l8 -8l8 -7l7 -6l11 -10l4 -2l2 -2v-1l-1 -1h-1h-2l-8 -1l-7 -1l-6 -1l-7 -1l-5 -2l-6 -2l-5 -2
l-4 -3l-5 -1l-3 -3l-3 -2l-4 -3l-4 -5l-2 -3l-2 -2l-3 -6l-2 -5l-1 -5l-1 -4v-6v-3l-1 -4v-4l-1 -4v-3l1 -4l1 -4l2 -7l2 -3l2 -3l2 -3l3 -3l3 -3l2 -3l7 -5l8 -4l8 -5l9 -3l9 -4l11 -2l10 -4l11 -2l12 -2l11 -2l12 -1l24 -3h24h23h10h10h11l9 1l9 1l8 1l13 2l9 3l9 2l17 7
l8 3l7 3l12 7l10 6l8 5l6 5l9 -1l7 -1l14 -1h6h6l4 -1l4 -1l7 -3l8 -2l14 -5l15 -5l14 -4l14 -3l15 -4l15 -2l15 -2l14 -2l14 -1l15 -1h13h14h13l13 1l13 1l12 2l11 3l11 2l11 3l5 1l5 2l9 3l8 4l8 4l8 4l6 5l3 3l3 4l4 4l4 6l1 3l1 3l2 3l1 3v4l1 3l-1 5l-1 4l-2 5l-1 4
l-3 5l-3 5l-3 3l-4 4l-9 7l-10 8l-10 5l-10 6l-23 12l-6 3l-2 2l-1 1l12 11l5 6l4 5l8 12l7 11l6 11l6 10l8 20l7 16l4 12l2 4l2 3l2 2h1h1l6 -12l5 -12l4 -7l4 -5l4 -7l5 -7l4 -5l3 -2l2 -3l2 -1l3 -2l4 -2l3 -1h2h2l2 1l4 1l3 2l3 2l3 3l3 4l2 3l3 5l2 3l2 6l2 4l3 11
l2 12l2 14l1 8v6v7v9z" />
    <glyph glyph-name="f" unicode="&#xe693;" 
d="M810 -52h-115v296h-167v-296h-314v408l298 252l298 -252v-408v0zM940 373l-396 336q-14 11 -32 11t-31 -11l-397 -336q-15 -13 -16.5 -33t11.5 -35.5t33 -17t35 11.5l7 5v-387q0 -12 8.5 -21t21.5 -9h657q12 0 21 9t9 21v387l6 -5q15 -12 32 -12q22 0 37 17
q13 16 11.5 36t-17.5 33z" />
    <glyph glyph-name="check" unicode="&#xe647;" 
d="M888 598q-10 9 -23 8.5t-22 -10.5l-427 -454l-233 230q-10 9 -23 9t-22.5 -9.5t-9.5 -23t10 -22.5l256 -253h1v0q1 -1 7 -4q0 -1 1 -1.5t2 -1.5q6 -2 12 -2t12 3q1 0 2 1t2 1q5 3 7 5v0v0l449 479q9 9 9 22.5t-10 22.5z" />
    <glyph glyph-name="close" unicode="&#xe648;" 
d="M557 383l266 264q9 9 9 22t-9.5 22.5t-22.5 9.5t-23 -9l-265 -264l-263 264q-9 9 -22.5 9t-23 -9t-9.5 -22.5t10 -22.5l263 -264l-265 -264q-10 -9 -10 -22.5t9.5 -22.5t22.5 -9t23 9l265 264l265 -267q10 -9 23 -9t22.5 9.5t9.5 22.5t-9 23z" />
    <glyph glyph-name="roundcheck" unicode="&#xe649;" 
d="M512 -64q-185 0 -316.5 131.5t-131.5 316.5t131.5 316.5t316.5 131.5t316.5 -131.5t131.5 -316.5t-131.5 -316.5t-316.5 -131.5zM512 768q-104 0 -192.5 -51.5t-140 -140t-51.5 -192.5t51.5 -192.5t140 -140t192.5 -51.5t192.5 51.5t140 140t51.5 192.5t-51.5 192.5
t-140 140t-192.5 51.5zM727 502.5q-9 9.5 -22.5 9.5t-22.5 -9l-234 -236l-103 106q-9 9 -22.5 9.5t-23 -9t-9.5 -22.5t9 -23l126 -129h1v-1q1 -1 7 -4q0 -1 1 -1.5t2 -1.5q6 -2 12 -2t12 2q1 1 2 1.5t2 1.5q5 3 7 4v0v1l256 259q10 9 9.5 22t-9.5 22.5z" />
    <glyph glyph-name="roundclosefill" unicode="&#xe64a;" 
d="M512 832q-185 0 -316.5 -131.5t-131.5 -316.5t131.5 -316.5t316.5 -131.5t316.5 131.5t131.5 316.5t-131.5 316.5t-316.5 131.5zM695 246q9 -9 9 -22.5t-9.5 -23t-22.5 -9.5t-23 10l-137 138l-138 -137q-10 -9 -23 -9t-22.5 9.5t-9.5 22.5t10 23l138 136l-138 138
q-9 9 -9 22.5t9.5 23t22.5 9.5t23 -10l137 -138l138 137q10 9 23 9t22.5 -9.5t9.5 -22.5t-10 -23l-138 -136z" />
    <glyph glyph-name="roundclose" unicode="&#xe64b;" 
d="M512 -64q-185 0 -316.5 131.5t-131.5 316.5t131.5 316.5t316.5 131.5t316.5 -131.5t131.5 -316.5t-131.5 -316.5t-316.5 -131.5zM512 768q-104 0 -192.5 -51.5t-140 -140t-51.5 -192.5t51.5 -192.5t140 -140t192.5 -51.5t192.5 51.5t140 140t51.5 192.5t-51.5 192.5
t-140 140t-192.5 51.5zM557 383l138 136q10 10 10 23t-9.5 22.5t-22.5 9.5t-23 -9l-138 -137l-137 137q-9 9 -22 9t-22.5 -9t-9.5 -22.5t9 -22.5l136 -137l-137 -136q-9 -9 -9.5 -22.5t9 -23t22.5 -9.5q14 0 23 10l138 136l138 -140q10 -9 23 -9t22.5 9.5t9.5 22.5t-9 23z
" />
    <glyph glyph-name="squarecheckfill" unicode="&#xe64c;" 
d="M832 800h-640q-40 0 -68 -28t-28 -68v-640q0 -40 28 -68t68 -28h640q40 0 68 28t28 68v640q0 40 -28 68t-68 28zM727 458l-256 -259v-1v0q-2 -1 -7 -4q-1 -1 -2 -1.5t-2 -1.5q-6 -2 -12 -2t-12 2q-1 1 -2 1.5t-1 1.5q-6 3 -7 4v1h-1l-126 129q-9 10 -9 23t9.5 22.5t23 9
t22.5 -9.5l103 -106l234 236q9 9 22.5 9t22.5 -9.5t9.5 -22.5t-9.5 -22z" />
    <glyph glyph-name="square" unicode="&#xe64d;" 
d="M832 -32h-640q-40 0 -68 28t-28 68v640q0 40 28 68t68 28h640q40 0 68 -28t28 -68v-640q0 -40 -28 -68t-68 -28zM192 736q-13 0 -22.5 -9.5t-9.5 -22.5v-640q0 -13 9.5 -22.5t22.5 -9.5h640q13 0 22.5 9.5t9.5 22.5v640q0 13 -9.5 22.5t-22.5 9.5h-640z" />
    <glyph glyph-name="shebei" unicode="&#xe696;" 
d="M511 720q-91 0 -174 -35.5t-143 -95.5t-95.5 -143t-35.5 -174q0 -124 63 -228.5t168 -163.5h434q105 59 168 163.5t63 228.5q0 91 -35.5 174t-95.5 143t-143 95.5t-174 35.5zM765 19q-14 -14 -30 -27h-168l-32 448h-48l-32 -448h-168q-16 13 -30 27q-51 50 -78 115.5
t-27 137.5h79v56h-74q9 60 37 112h93v56h-56q12 16 26 30q61 61 142 87v-61h56v75q28 4 56 4t56 -4v-75h56v61q81 -26 142 -87q14 -14 26 -30h-56v-56h93q28 -52 37 -112h-74v-56h79q0 -72 -27.5 -137.5t-77.5 -115.5z" />
    <glyph glyph-name="kongjian" unicode="&#xe640;" 
d="M740 746q-51 25 -106 38v0q-53 12 -108 12q-24 0 -49 -2q-8 -1 -17 -3q-30 -4 -59 -12q-156 -41 -256 -170t-100 -294.5t100 -294.5t256 -170q29 -8 59 -12q9 -2 17 -3q25 -2 49 -2q55 0 108 12q55 13 106 38q121 60 194.5 176t73.5 255.5t-73.5 255.5t-194.5 176z
M696 387q-58 24 -190.5 21t-184.5 -27q78 -5 270 -18l-6 -12q-36 -23 -110 -71.5t-111 -72.5v-6q47 -6 99 -7.5t110.5 2t95.5 7t100 10.5v-6h-12q-6 -4 -13.5 -8.5t-9.5 -7t-4 -10t-4 -22.5q8 -39 31 -150l-3 -3l-3 -3h-25q-46 39 -104.5 71.5t-110.5 36.5
q-32 -18 -95.5 -54t-94.5 -54q-4 2 -12.5 6t-12.5 6q7 39 21.5 117t21.5 117q-63 58 -172 156q1 2 4 13l1 1q1 3 1 4q172 23 228 30q46 82 122 216h13q66 -139 104 -222q41 -4 120.5 -12t119.5 -12l3 -6l3 -6q-29 -28 -86.5 -84t-85.5 -84v-30q-38 3 -113.5 9t-113.5 9l12 6
q97 70 209 150h-12z" />
    <glyph glyph-name="left2" unicode="&#xe664;" 
d="M651.5 -55q-6.5 0 -11.5 5l-425 425q-11 11 0 23l429 429q11 11 22.5 -0.5t0.5 -22.5l-418 -418l414 -414q5 -4 5 -11t-5 -11.5t-11.5 -4.5z" />
    <glyph glyph-name="right2" unicode="&#xe665;" 
d="M342 -55q-7 0 -11.5 4.5t-4.5 11.5t5 11l414 414l-418 418q-11 11 0 22.5t23 0.5l429 -429q11 -12 0 -23l-426 -425q-4 -5 -11 -5z" />
    <glyph glyph-name="vipcard" unicode="&#xe64e;" 
d="M859 32h-694q-42 0 -71.5 29.5t-29.5 71.5v502q0 42 29.5 71.5t71.5 29.5h694q42 0 71.5 -29.5t29.5 -71.5v-502q0 -42 -29.5 -71.5t-71.5 -29.5zM165 672q-15 0 -26 -11t-11 -26v-502q0 -15 11 -26t26 -11h694q15 0 26 11t11 26v502q0 15 -11 26t-26 11h-694zM800 480
h-576q-13 0 -22.5 9.5t-9.5 22.5t9.5 22.5t22.5 9.5h576q13 0 22.5 -9.5t9.5 -22.5t-9.5 -22.5t-22.5 -9.5zM320 160h-96q-13 0 -22.5 9.5t-9.5 22.5t9.5 22.5t22.5 9.5h96q13 0 22.5 -9.5t9.5 -22.5t-9.5 -22.5t-22.5 -9.5z" />
    <glyph glyph-name="mima01" unicode="&#xe736;" 
d="M760 455v103q0 5 -0.5 14t-5 34t-13 48t-26.5 50.5t-42.5 47.5t-64.5 34t-89.5 14t-89.5 -13.5t-64.5 -34.5t-42.5 -47t-26 -51.5t-13 -47t-6 -34.5v-14v-103h-104v-484h691v484h-104zM553 188v-113h-69v113q-34 20 -34 59q0 29 20 49.5t48.5 20.5t49 -20.5t20.5 -49.5
q0 -39 -35 -59zM691 455h-345v103q0 14 2 29.5t12.5 43t27.5 48t51 36.5t79.5 16t80 -16t51.5 -36.5t27 -48t12 -43t2 -29.5v-103z" />
    <glyph glyph-name="delete1" unicode="&#xe68e;" 
d="M480 516h64v-549h-64v549zM329 516h64v-549h-64v549zM631 516h64v-549h-64v549zM896 641h-172v41q0 23 -18.5 39t-45.5 16h-296q-27 0 -45.5 -16t-18.5 -39v-41h-177v-64h67v-675q0 -25 19 -43.5t45 -18.5h516q26 0 45 18.5t19 43.5v675h62v64v0zM364 673h296v-32h-296
v32zM771 -96h-1l-516 -2v675h516z" />
    <glyph glyph-name="zhaobiao" unicode="&#xe679;" 
d="M285 890l76 -29q10 -3 3 -10l-14 -29v-136l32 4l43 42l54 -46q3 -7 -4 -11l-125 -7l-4 -161q64 25 118 50q7 0 0 -7q-32 -25 -96 -72q-15 -10 -22 -14l-3 -154l3 -128q7 -90 -96 -154q-8 -4 -11 0q-4 0 0 10q0 43 -29 65q-7 11 4 14q68 -7 61 29v268q-82 -64 -108 -89
q-7 -8 -10 3l-29 93q0 7 7 7q61 18 140 50l3 187l-125 -8q-7 -3 -11 8q-3 7 7 10l129 7v25q0 121 -3 176q0 10 10 7zM861 600q0 -89 -111 -139q-7 -4 -10 -4q-7 4 -4 11q0 43 -32 57q-4 3 -4 11q4 3 11 3q65 -3 57 43l11 201h-168l64 -25q7 0 7 -4l-7 -7l-10 -18
q-75 -168 -240 -311q-7 -4 -11 0q0 3 4 10q132 140 168 351h-25q-43 0 -86 -7l-21 25l322 7l42 39l72 -50q7 -3 0 -10l-21 -29l-8 -100v-54zM854 139h-53q-87 3 -254 -4v-4q0 -60 -54 -103q-18 -11 -18 3l4 143v244q0 10 7 3l68 -39l196 7l36 47l86 -47q7 -4 0 -11l-21 -28
l3 -190l4 -14q3 -7 -4 -7zM547 364v-211l207 7v211z" />
    <glyph glyph-name="weixin" unicode="&#xe641;" 
d="M693 465q15 0 35 -2q-23 109 -127.5 181.5t-238.5 72.5q-98 0 -181 -40.5t-132 -111.5t-49 -156q0 -143 145 -245l-36 -109l127 64q6 -2 25 -5.5t27 -5t22.5 -4t26.5 -3t25 -0.5q16 0 34 1q-11 38 -11 76q0 119 89.5 203t218.5 84zM498 563q21 0 33.5 -12.5t12.5 -33
t-12.5 -33t-33.5 -12.5t-37.5 13t-16.5 32.5t16.5 32.5t37.5 13zM245 472q-22 0 -38.5 13t-16.5 32.5t16.5 32.5t38.5 13q20 0 32.5 -12.5t12.5 -33t-12.5 -33t-32.5 -12.5zM1024 182q0 71 -43 132t-113.5 96t-151.5 35q-129 0 -218.5 -77t-89.5 -186t89.5 -186t218.5 -77
q37 0 109 18l99 -54l-27 90q127 96 127 209zM616 228q-13 0 -24.5 11t-11.5 24.5t11.5 25t24.5 11.5q20 0 33 -11t13 -25.5t-13 -25t-33 -10.5zM815 228q-13 0 -24.5 11t-11.5 24.5t11.5 25t24.5 11.5q20 0 33 -11t13 -25.5t-13 -25t-33 -10.5z" />
    <glyph glyph-name="baozha" unicode="&#xe697;" 
d="M270 -100l-207 325l174 -120l-129 341l179 -186l-28 396l209 -318l12 186l61 -165l102 389v-438l94 127l-14 -163l237 247l-171 -473l150 64l-110 -127l78 -14l-196 -71l71 99l-87 -28l58 207l-139 -118l-16 188l-29 -129l-49 80l-14 -118l-106 179l7 -231l-106 90
l47 -219h-78z" />
    <glyph glyph-name="sousuo" unicode="&#xe642;" 
d="M911 -86l-155 168l-1 1q57 53 88.5 125t31.5 153q0 104 -51.5 193t-140 140.5t-193 51.5t-193 -51.5t-140.5 -140.5t-52 -193t52 -193t140.5 -140.5t192.5 -51.5q112 0 206 60q2 -3 4 -5l155 -169q8 -8 19 -8.5t20 6.5l16 15q8 8 8.5 19t-7.5 20zM155 361
q0 91 44.5 168.5t122 122.5t168.5 45t168.5 -45t122.5 -122.5t45 -168.5t-45 -168.5t-122.5 -122.5t-168.5 -45t-168.5 45t-122 122.5t-44.5 168.5z" />
    <glyph glyph-name="camera" unicode="&#xe630;" 
d="M1002 675h-234l-76 113q-6 9 -17 9h-326q-11 0 -17 -9l-76 -113h-234q-8 0 -14 -6t-6 -15v-652q0 -9 6 -15t14 -6h980q8 0 14 6t6 15v652q0 9 -6 15t-14 6zM981 22h-938v612h224q11 0 17 9l76 113h304l76 -113q6 -9 17 -9h224v-612v0zM777 348q0 -18 -2 -36q-1 -8 -8 -13
t-15.5 -4t-13.5 8t-4 15q2 15 2 30q0 93 -65.5 159t-158.5 66t-158.5 -66t-65.5 -159t65.5 -158.5t158.5 -65.5q87 0 151 59q7 6 15.5 5.5t14 -7t5 -15t-6.5 -13.5q-76 -70 -179 -70q-110 0 -187.5 77.5t-77.5 187.5t77.5 188t187.5 78t187.5 -78t77.5 -188z" />
    <glyph glyph-name="card" unicode="&#xe631;" 
d="M430 228h-306q2 25 18.5 41t36 22.5t38 15.5t23.5 21v34q-4 3 -10 15.5t-8 23.5q-11 1 -13 23q-1 12 6 17q-28 112 62 114q27 0 35 -15q18 -2 26.5 -14.5t9 -29.5t-2 -30.5t-5.5 -24.5q7 -5 6 -17q-3 -22 -14 -23q-1 -11 -7 -23.5t-10 -15.5q0 -26 1 -34q4 -12 22.5 -21
t38 -15.5t36 -22.5t17.5 -41zM920 452.5q0 -8.5 -6 -14.5t-14 -6h-368q-8 0 -14 6t-6 14.5t6 14.5t14 6h368q8 0 14 -6t6 -14.5zM920 350.5q0 -8.5 -6 -14.5t-14 -6h-368q-8 0 -14 6t-6 14.5t6 14.5t14 6h368q8 0 14 -6t6 -14.5zM920 248.5q0 -8.5 -6 -14.5t-14 -6h-368
q-8 0 -14 6t-6 14.5t6 14.5t14 6h368q8 0 14 -6t6 -14.5zM1022 636v-571q0 -26 -18 -43.5t-43 -17.5h-82q-8 0 -14 5.5t-6 14t6 14.5t14 6h82q8 0 14 6t6 15v571q0 9 -6 14.5t-14 5.5h-449q-8 0 -14 6t-6 15v41q0 8 -6 14t-15 6h-408q-8 0 -14 -6t-6 -14v-653q0 -9 6 -15
t14 -6h102v62q0 8 6 14t15 6h81q9 0 15 -6t6 -14.5t-6 -14.5t-15 -6h-61v-61q0 -9 -6 -14.5t-14 -5.5h-123q-25 0 -43 17.5t-18 43.5v653q0 25 18 43t43 18h408q26 0 43.5 -18t17.5 -43v-21h429q25 0 43 -18t18 -43zM859 105.5q0 -8.5 -6 -14.5t-15 -6h-61v-61
q0 -9 -6 -14.5t-14 -5.5h-449q-9 0 -15 5.5t-6 14t6 14.5t15 6h428v62q0 8 6 14t15 6h81q9 0 15 -6t6 -14.5z" />
    <glyph glyph-name="computer" unicode="&#xe632;" 
d="M971 768h-918q-9 0 -15 -6t-6 -15v-612q0 -8 6 -14t15 -6h918q9 0 15 6t6 14v612q0 9 -6 15t-15 6zM951 156h-878v571h878v-571zM788 53.5q0 -8.5 -6 -14.5t-15 -6h-510q-9 0 -15 6t-6 14.5t6 14.5t15 6h510q9 0 15 -6t6 -14.5z" />
    <glyph glyph-name="copy" unicode="&#xe633;" 
d="M629 481l-163 164q-6 6 -14.5 6t-14.5 -6t-6 -14.5t6 -14.5l129 -129h-176v225q0 8 -6 14t-14 6h-348q-9 0 -15 -6t-6 -14v-818q0 -9 6 -15t15 -6h593q8 0 14 6t6 15v572q0 9 -6 15zM594 -86h-552v777h307v-225q0 -8 6 -14t15 -6h224v-532zM1024 630v-573q0 -8 -6 -14
t-14 -6h-308q-9 0 -15 6t-6 14.5t6 14.5t15 6h287v532h-225q-8 0 -14 6t-6 14v225h-307v-76q0 -8 -6 -14t-14.5 -6t-14.5 6t-6 14v97q0 8 6 14t14 6h348q9 0 15 -6t6 -14v-225h175l-129 128q-6 6 -6 14.5t6 14.5t14.5 6t14.5 -6l164 -163q6 -6 6 -15z" />
    <glyph glyph-name="download" unicode="&#xe634;" 
d="M1023 373q0 -75 -53.5 -128t-128.5 -53h-185q-9 0 -15 6t-6 14.5t6 14.5t15 6h185q58 0 99.5 41t41.5 99t-41 99.5t-99 41.5h-1q-10 0 -16 7t-5 16q2 16 2 28q0 95 -67 161.5t-161 66.5q-72 0 -131 -42q-57 -41 -82 -107q-4 -10 -15 -12.5t-19 5.5q-29 30 -71.5 30
t-72.5 -30t-30 -72v-2v-3q1 -16 -15 -20q-50 -14 -82 -56t-32 -95q0 -65 45.5 -110.5t110.5 -45.5h170q8 0 14 -6t6 -14.5t-6 -14.5t-14 -6h-170q-82 0 -139.5 57.5t-57.5 139.5q0 67 41 121q35 45 88 64q4 56 45.5 95t97.5 39q43 0 79 -24q30 61 85 100q70 50 155 50
q111 0 190 -79t79 -190q0 -5 -1 -11q68 -8 114.5 -59.5t46.5 -121.5zM629 75l-102 -102q-6 -6 -14.5 -6t-14.5 6l-102 102q-6 6 -6 14.5t6 14.5t14.5 6t14.5 -6l67 -67v359q0 8 6 14t14.5 6t14.5 -6t6 -14v-359l67 67q6 6 14.5 6t14.5 -6t6 -14.5t-6 -14.5z" />
    <glyph glyph-name="file" unicode="&#xe635;" 
d="M888 582l-198 198q-6 6 -14 6t-14 -6t-6 -14.5t6 -14.5l163 -163h-216v265q0 9 -6 15t-15 6h-408q-8 0 -14 -6t-6 -15v-938q0 -9 6 -15t14 -6h694q8 0 14 6t6 15v653q0 8 -6 14zM854 -65h-653v898h367v-265q0 -9 6 -15t14 -6h266v-612z" />
    <glyph glyph-name="fold" unicode="&#xe636;" 
d="M820 236q-8 0 -14 6l-279 274l-278 -274q-7 -6 -15 -6t-14 6t-6 14.5t6 14.5l293 288q6 6 14.5 6t13.5 -6l293 -288q6 -6 6.5 -14.5t-5.5 -14.5t-15 -6z" />
    <glyph glyph-name="folderadd" unicode="&#xe637;" 
d="M16 65h-1h1zM961 635v61q0 26 -18 44t-43 18h-530q-3 1 -8 8q-5 6 -16 22q-10 17 -16.5 25.5t-18 17t-23.5 8.5h-225q-25 0 -43 -18t-18 -43v-694v-1v-0.5v-0.5v-1v0v-1v-1q1 -1 1 -2v0q0 -1 0.5 -1h0.5v0v-1.5t1 -0.5v-1q1 -2 3 -3v-1q1 0 1.5 -0.5l0.5 -0.5l1 -1
l0.5 -0.5t1.5 -0.5v0h1v0v0q0 -1 1 -1t1.5 -0.5t1.5 -0.5h2h2v0h1.5h1h0.5v0h0.5h1h0.5q1 1 2 1h1q1 0 1 1v0h0.5t1.5 1v0q1 0 2 1l1 1l0.5 0.5l1 1t0.5 1t1 0.5v0q0 1 1 2l0.5 0.5l0.5 0.5v0v1v1h1v1v0v2v0l103 492v2q0 8 6 14t14 6h796q8 0 14 -5.5t6 -13.5l-101 -548v0
q-1 -1 -1 -1.5v-0.5v0v-1v-1v0q0 -8 -6 -14t-14 -6h-596q-9 0 -15 -6t-6 -14.5t6 -14.5t15 -6h596q25 0 42.5 17t18.5 42v0l102 549v2v2q0 25 -18 43t-43 18zM920 635h-755q-25 0 -42.5 -17t-18.5 -42l-61 -293v495q0 8 6 14t14 6h224q3 -1 9 -8q5 -6 16 -23q10 -17 16 -25
t17.5 -16.5t23.5 -8.5h531q8 0 14 -6t6 -15v-61v0zM698 292.5q0 -8.5 -6 -14.5t-14 -6h-146v-145q0 -9 -6 -15t-14 -6t-14 6t-6 15v145h-146q-8 0 -14 6t-6 14.5t6 14.5t14 6h146v145q0 9 6 15t14 6t14 -6t6 -15v-145h146q8 0 14 -6t6 -14.5z" />
    <glyph glyph-name="folder" unicode="&#xe638;" 
d="M961 624v61q0 25 -18 43t-43 18h-530q-3 2 -8 8q-5 7 -16 23q-10 17 -16.5 25.5t-18 17t-23.5 8.5h-225q-25 0 -43 -18t-18 -43v-694v-1v-0.5v-1.5v0v0v-1.5v-0.5q1 -1 1 -2v-1h0.5h0.5v-1v-0.5t1 -0.5v-1q1 -2 3 -4v0q1 0 1.5 -0.5l0.5 -0.5l1 -1l0.5 -0.5t1.5 -0.5v0
l1 -1v0v0h1t1.5 -0.5t1.5 -0.5t2 -0.5t2 -0.5v0h1.5t1 0.5l0.5 0.5v0h0.5h1h0.5q1 0 2 1h1h1v0l0.5 0.5t1.5 0.5v1q1 0 2 1q1 0 1 0.5t0.5 1l1 1l0.5 0.5l1 1v0q0 1 1 1q0 1 0.5 1.5l0.5 0.5v0v1v0q0 1 1 1v0v1v2v0l103 492v2q0 8 6 14t14 6h796q8 0 14 -5.5t6 -13.5
l-101 -548v-1q-1 0 -1 -0.5v-0.5v-0.5v-0.5v-1v0q0 -9 -6 -15t-14 -6h-596q-9 0 -15 -6t-6 -14.5t6 -14.5t15 -6h596q25 0 42.5 17.5t18.5 42.5v0l102 549v2v2q0 25 -18 43t-43 18zM920 624h-755q-25 0 -42.5 -17t-18.5 -42l-61 -294v496q0 8 6 14t14 6h224q3 -1 9 -8
q5 -7 16 -24q10 -16 16 -24.5t17.5 -17t23.5 -8.5h531q8 0 14 -6t6 -14v-61v0zM16 53l-1 1q1 0 1 -1z" />
    <glyph glyph-name="my" unicode="&#xe639;" 
d="M1024 384q0 -97 -35.5 -187t-101.5 -162h-1l-24 -24q-6 -5 -14 -5.5t-14 5.5q-31 27 -114 60q-28 11 -42 17.5t-34 17.5t-32 24.5t-18 30.5q-1 3 -1 6q-3 26 -2 69v19q0 12 10 18q8 5 20.5 31.5t15.5 52.5q1 7 6 12t13 6q2 0 4.5 3t6.5 12.5t6 24.5q2 17 -6 22
q-14 9 -9 24q15 45 19 92q5 65 -17 100q-18 30 -59 35q-10 2 -15 10q-14 26 -76 26q-93 -2 -132 -52q-25 -34 -27 -89q-3 -53 15 -123q4 -15 -9 -23q-8 -6 -6 -22q2 -15 6 -24.5t6.5 -12.5t4.5 -3q8 -1 13 -6t6 -12q3 -26 16 -52.5t21 -31.5q10 -6 10 -18v-19q1 -43 -2 -69
q0 -3 -1 -6q-6 -17 -18 -30.5t-32 -24.5t-34.5 -17.5t-41.5 -17.5q-31 -12 -46 -19q-8 -3 -16 0t-11.5 10.5t-0.5 15.5t11 11q16 8 48 20q31 12 46.5 19t32.5 19.5t23 25.5q2 24 2 62q0 4 -1 10q-14 14 -26.5 41t-18.5 53q-10 5 -18 15q-15 20 -19 56q-4 31 13 51
q-38 157 22 236q50 66 164 68v0q76 0 106 -38q53 -10 79 -53q19 -31 22 -77.5t-2.5 -76.5t-13.5 -59q16 -21 12 -51q-4 -36 -19 -56q-8 -10 -18 -15q-6 -28 -19 -56q-13 -25 -25 -38v-10q-1 -39 1 -62q9 -19 32.5 -32.5t69.5 -31.5q78 -31 112 -56l10 11q61 65 93.5 148
t32.5 172q0 96 -37 183q-36 85 -101 150t-150 101q-87 37 -183 37t-183 -37q-85 -36 -150 -101t-101 -150q-37 -87 -37 -183t37 -183q36 -85 101 -150t150 -101q87 -37 183 -37q122 0 229 59q7 4 15 2t12.5 -9.5t2 -16t-9.5 -12.5q-116 -64 -249 -64q-104 0 -199 40
q-92 39 -163 110t-110 163q-40 95 -40 199t40 199q39 92 110 163t163 110q95 40 199 40t199 -40q92 -39 163 -110t110 -163q40 -95 40 -199z" />
    <glyph glyph-name="order" unicode="&#xe63a;" 
d="M418 761v-743q0 -9 -6 -15t-14.5 -6t-14.5 6t-6 15v708l-223 -224q-6 -6 -14.5 -6t-14.5 6t-6 14.5t6 14.5l258 259q10 9 22.5 4t12.5 -19v-14zM915 261l-258 -258q-6 -6 -15 -6q-4 0 -8 2q-12 5 -12 19v14v743q0 9 6 15t14.5 6t14.5 -6t6 -15v-708l223 223q6 6 14.5 6
t14.5 -6t6 -14.5t-6 -14.5z" />
    <glyph glyph-name="share" unicode="&#xe63b;" 
d="M514 405zM263 410q-2 2 -3 4t-2 5q2 -4 5 -9zM762 122q0 -1 -0.5 -1.5t-0.5 -1.5q0 1 1 3zM865 232q-42 0 -77.5 -21.5t-55.5 -56.5l-422 168q5 19 5 39q0 28 -10 54l360 195q21 -28 53 -44.5t69 -16.5q63 0 108 44.5t45 108t-45 108t-108 44.5t-108 -44.5t-45 -108.5
q0 -28 11 -55l-360 -195q-21 29 -53.5 46t-69.5 17q-63 0 -108 -44.5t-45 -108t45 -108t108 -44.5q41 0 76 20.5t56 54.5l423 -168q-5 -18 -5 -37q0 -63 45 -108t108 -45t108 45t45 108t-45 108t-108 45zM787 813q46 0 79 -32.5t33 -79t-33 -79t-79 -32.5t-79 32.5t-33 79
t33 79t79 32.5zM162 250q-46 0 -79 32.5t-33 79t33 79t79 32.5q30 0 55.5 -14.5t40.5 -39.5q2 -4 5 -9q11 -23 11 -49q0 -46 -33 -78.5t-79 -32.5zM865 -33q-46 0 -79 33t-33 79q0 21 8 40v0q0 1 1 3v0q12 31 40.5 50t62.5 19q46 0 79 -33t33 -79t-33 -79t-79 -33z" />
    <glyph glyph-name="shopping" unicode="&#xe63c;" 
d="M963 -107.5q-6 -6.5 -16 -6.5h-857q-9 0 -15 6.5t-5 16.5l82 714q1 8 6.5 13t13.5 5h71q8 0 14 -6t6 -14.5t-6 -14.5t-14 -6h-53l-77 -673h812l-77 673h-65q-8 0 -14 6t-6 14.5t6 14.5t14 6h83q8 0 13.5 -5t6.5 -13l82 -714q1 -10 -5 -16.5zM641 620.5q0 -8.5 -6 -14.5
t-15 -6h-199q-8 0 -14 6t-6 14.5t6 14.5t14 6h199q9 0 15 -6t6 -14.5zM743 518q0 -16 -12 -28t-28.5 -12t-28.5 12t-12 28q0 24 20 36v128q0 67 -48 115t-115.5 48t-115 -48t-47.5 -115v-128q20 -12 20 -36q0 -16 -12 -28t-29 -12t-29 12t-12 28q0 24 21 36v128q0 84 60 144
t144 60t144 -60t60 -144v-128q20 -12 20 -36z" />
    <glyph glyph-name="upload" unicode="&#xe63d;" 
d="M1023 340q0 -75 -53.5 -128.5t-128.5 -53.5h-185q-9 0 -15 6t-6 14.5t6 14.5t15 6h185q58 0 99.5 41.5t41.5 99.5t-41 99t-99 42l-1 -1q-10 0 -16 7t-5 16q2 16 2 29q0 94 -67 160.5t-161 66.5q-72 0 -131 -42q-57 -41 -82 -107q-4 -10 -15 -12.5t-19 5.5
q-29 30 -71.5 30t-72.5 -30t-30 -72v-2v-3q1 -16 -15 -20q-50 -14 -82 -55q-32 -42 -32 -96q0 -64 45.5 -110t110.5 -46h170q8 0 14 -6t6 -14.5t-6 -14.5t-14 -6h-170q-82 0 -139.5 58t-57.5 139q0 68 41 121q35 45 88 65q4 56 45.5 94.5t97.5 38.5q43 0 79 -24
q30 61 85 101q70 49 155 49q111 0 190 -78.5t79 -189.5q0 -6 -1 -12q68 -8 114.5 -59.5t46.5 -120.5zM629 307q-6 -6 -14.5 -6t-14.5 6l-67 67v-359q0 -8 -6 -14t-14.5 -6t-14.5 6t-6 14v359l-67 -67q-6 -6 -14.5 -6t-14.5 6t-6 14.5t6 14.5l102 102q6 6 14.5 6t14.5 -6
l102 -102q6 -6 6 -14.5t-6 -14.5z" />
    <glyph glyph-name="06shiyanshi" unicode="&#xe698;" 
d="M911 121l-260 371v141h3q21 0 36 15t15 36t-15 36t-36 15h-289q-21 0 -36 -15t-15 -36t15 -36t36 -15h5v-141l-272 -389q-4 -5 -6 -11q-18 -38 -18 -94q0 -26 9 -51q1 -6 3 -11l8 -16q9 -16 25 -26q12 -12 29 -12h7h8h8h680h9h8h3q12 0 23 7q22 10 35 31l8 16q2 5 3 11
q8 25 8 51q0 82 -37 123zM441 451q5 6 6 13q5 9 5 18v151h117v-151q0 -9 5 -18q2 -7 6 -13l276 -395l4 -4q7 -20 7 -29q0 -48 -32 -59h-648q-31 11 -31 59q0 8 8 31h-1l2 2zM776 9l-104 142q-22 -16 -50 -16q-39 0 -64 30q-5 11 -13 20v0.5v0.5h-1q-22 25 -55 25
q-29 0 -50 -19t-25 -47q-11 -24 -38 -24q-23 0 -36 20l-97 -132h267h266v0z" />
    <glyph glyph-name="dingdan" unicode="&#xe699;" 
d="M844 752h-61q-13 0 -24 -7.5t-11 -19.5t11.5 -22.5t23.5 -10.5h61q26 0 43 -17t17 -43v-693q0 -27 -17 -43.5t-43 -16.5h-648q-29 0 -52.5 17t-23.5 43v693q0 26 17 43t43 17h76q23 0 23 33q0 27 -23 27h-76q-60 0 -90 -33.5t-30 -88.5v-685q0 -57 33.5 -91.5t93.5 -34.5
h650q62 0 94.5 32t32.5 94v685q0 54 -32 88t-88 34zM256 480.5q0 -12.5 9 -21.5t22 -9h452q12 0 21 9t9 21.5t-9 21.5t-21 9h-452q-13 0 -22 -9t-9 -21.5zM737 345h-450q-13 0 -22 -9t-9 -21.5t9 -22t22 -9.5h452q12 0 21 9.5t9 21.5q-1 13 -10 22t-22 9zM737 164h-450
q-13 0 -22 -9t-9 -21.5t9 -21.5t22 -9h452q12 0 21 9t9 22q-1 13 -10 21.5t-22 8.5zM408 676h210q18 0 31.5 16t13.5 37t-13.5 36.5t-32.5 15.5h-209q-19 0 -32.5 -15.5t-13.5 -36.5t13.5 -37t32.5 -16z" />
    <glyph glyph-name="left" unicode="&#xe600;" 
d="M364 423q-20 -18 -20 -44t21 -44l309 -271q7 -6 15.5 -5.5t14.5 7.5t5.5 15.5t-7.5 14.5l-309 271q-14 12 -1 24l310 281q7 6 7.5 15t-5.5 15.5t-15 7t-15 -5.5z" />
    <glyph glyph-name="cart" unicode="&#xe601;" 
d="M235 197q9 -27 35 -46t55 -19h537h18l6 19l123 429q9 32 -9 56.5t-51 24.5h-524q-11 0 -18 -7.5t-7 -18t7 -18t18 -7.5h524q17 0 12 -16l-123 -429l24 18h-537q-13 0 -26 9t-17 21l-208 619q-4 10 -13 15t-19 1.5t-14.5 -13t-1.5 -19.5zM400 -6q0 42 -29.5 71.5t-71 29.5
t-70.5 -29.5t-29 -71.5t29 -71.5t70.5 -29.5t71 29.5t29.5 71.5zM250 -6q0 21 14.5 35.5t35 14.5t35.5 -14.5t15 -35.5t-15 -35.5t-35.5 -14.5t-35 14.5t-14.5 35.5zM924 -6q0 42 -29 71.5t-70.5 29.5t-71 -29.5t-29.5 -71.5t29.5 -71.5t71 -29.5t70.5 29.5t29 71.5zM774 -6
q0 21 15 35.5t35.5 14.5t35 -14.5t14.5 -35.5t-14.5 -35.5t-35 -14.5t-35.5 14.5t-15 35.5z" />
    <glyph glyph-name="close1" unicode="&#xe602;" 
d="M177 79q-6 -7 -6 -15.5t6.5 -14.5t15 -6t14.5 6l619 640q6 7 6 15.5t-6.5 14.5t-15.5 6t-15 -6zM795 49q6 -6 15 -6t15.5 6t6.5 14.5t-6 15.5l-619 640q-6 6 -14.5 6t-15 -6t-6.5 -14.5t6 -15.5z" />
    <glyph glyph-name="delete" unicode="&#xe603;" 
d="M973 687q11 0 18.5 7.5t7.5 18.5t-7.5 18.5t-18.5 7.5l-941 2q-10 0 -18 -8t-8 -19t8 -18.5t18 -7.5zM180 -96v-27h27l626 7h26v26v697q0 11 -7.5 18.5t-18.5 7.5t-18.5 -7.5t-7.5 -18.5v-697l26 27l-627 -7l27 -26v709q0 11 -7.5 19t-18.5 8t-19 -8t-8 -19v-709zM656 49
q0 -11 8 -18.5t19 -7.5t18.5 7.5t7.5 18.5v475q0 11 -7.5 18.5t-18.5 7.5t-19 -7.5t-8 -18.5v-475zM341 49q0 -11 8 -18.5t18.5 -7.5t18.5 7.5t8 18.5v475q0 11 -8 18.5t-18.5 7.5t-18.5 -7.5t-8 -18.5v-475zM499 49q0 -11 7.5 -18.5t18.5 -7.5t18.5 7.5t7.5 18.5v475
q0 11 -7.5 18.5t-18.5 7.5t-18.5 -7.5t-7.5 -18.5v-475zM392 779q0 11 7.5 19t18.5 8h205q11 0 18.5 -8t7.5 -19v-55h53v55q0 33 -23 56t-56 23h-205q-32 0 -55 -23t-23 -56v-48h52v48z" />
    <glyph glyph-name="favorite" unicode="&#xe604;" 
d="M472 812q10 23 17 22.5t17 -22.5l114 -265q4 -9 13.5 -13t19 0t13.5 13.5t0 19.5l-113 264q-23 53 -63 53t-64 -52l-119 -260q-5 -10 -1 -19.5t13.5 -13.5t19 -0.5t14.5 13.5zM946 488q25 -3 27.5 -9.5t-16.5 -22.5l-221 -188q-8 -7 -9 -17t6 -18t17.5 -8.5t18.5 5.5
l221 188q44 37 32 75t-70 44l-289 31q-11 1 -19 -5.5t-9 -17t5.5 -18.5t16.5 -9zM789 -62q5 -24 -0.5 -28t-27.5 8l-250 149q-9 5 -19 2.5t-15.5 -11t-3 -18.5t11.5 -16l250 -148q50 -30 83 -7t21 79l-60 279q-2 11 -10.5 16.5t-19 3.5t-16 -11t-3.5 -19zM233 -79
q-22 -13 -27.5 -8.5t-0.5 28.5l67 279q2 10 -3.5 18.5t-15.5 11t-19 -3t-12 -15.5l-66 -279q-13 -56 19 -79.5t83 5.5l252 142q9 5 12 14.5t-2.5 18.5t-15.5 12t-19 -2zM130 383q-48 42 -88 78q-8 7 -18 6.5t-17 -8.5t-6.5 -18t7.5 -17q40 -34 88 -78l128 -114q8 -6 18 -5.5
t17 8t6.5 17.5t-7.5 17v0l-1 1h-1v1l-1 1h-1l-1 1v1h-1l-1 1v0l-1 1v0l-1 1h-1v1l-1 1v0l-1 1h-1v1h-1v1h-1v0l-1 1v0l-1 1v0l-1 1v0l-1 1v0l-1 1v0l-1 1v0h-1v1h-1v1h-1v1h-1v0l-1 1v0l-1 1v0l-1 1v0l-1 1v0h-1v1h-1v1h-1v1h-1v1h-1v0l-1 1v0l-1 1v0l-1 1h-1v1h-1v1h-1v1
h-1v1h-1v1h-1l-1 1v0l-1 1v0l-1 1v0l-1 1h-1v1h-1v1h-1l-1 1v0l-1 1l-1 1v0l-1 1v0l-1 1h-1v1l-1 1h-1v1h-1l-1 1v1h-1l-1 1v0l-1 1l-1 1h-1v1l-1 1h-1v1h-1l-1 1l-1 1v0l-1 1l-1 1h-1v1l-1 1h-1l-1 1v1h-1l-1 1l-1 1l-1 1v0l-1 1l-1 1h-1l-1 1v1l-1 1h-1l-1 1l-1 1v1h-1
l-1 1l-1 1l-1 1h-1l-1 1v1l-1 1h-1l-1 1l-1 1l-1 1l-1 1h-1l-1 1v1l-1 1l-1 1h-1l-1 1l-1 1l-1 1l-1 1h-1l-1 1l-1 1l-1 1l-1 1v1l-1 1h-1l-1 1l-1 1l-1 1l-1 1l-1 1l-1 1h-1l-1 1l-1 1l-1 1l-2 2v0zM180 502q15 1 31 3q37 4 76 8q13 2 24 3q6 1 9 1q10 1 16.5 9.5t5.5 18.5
t-9.5 16.5t-18.5 4.5q-3 0 -9 -1q-11 -1 -23 -2q-40 -5 -76 -9q-16 -2 -31 -3q-31 -3 -56 -5q-10 -1 -17 -9t-6 -18t9 -16.5t18 -6.5q25 3 57 6z" />
    <glyph glyph-name="folder1" unicode="&#xe605;" 
d="M1024 550q0 52 -36.5 88.5t-88.5 36.5h-375l18 -7l-127 124l-7 7h-10h-348h-25v-25v-678q0 -52 36.5 -88.5t87.5 -36.5h738q11 0 18 7t7 17.5t-7 18t-18 7.5h-738q-30 0 -52 22t-22 53v678l-25 -25h348l-17 7l126 -124l7 -7h10h375q31 0 53 -22t22 -53v-443
q0 -10 7 -17.5t17.5 -7.5t18 7.5t7.5 17.5v443zM1016 410v50h-988v-50h988z" />
    <glyph glyph-name="form" unicode="&#xe606;" 
d="M836 847q30 0 52 -21.5t22 -51.5v-713l7 17l-162 -165l18 8h-585q-30 0 -52 21.5t-22 51.5v878l-25 -25h747zM64 896v-24v-878q0 -51 36.5 -86.5t87.5 -35.5h585h11l7 7l162 165l7 7v10v713q0 51 -36.5 86.5t-87.5 35.5h-747h-25zM736 189q-31 0 -53 -21.5t-22 -51.5
v-146q0 -11 7.5 -18t18 -7t17.5 7t7 18v146q0 10 7.5 17t17.5 7h112q10 0 17.5 7t7.5 17.5t-7.5 17.5t-17.5 7h-112zM775 677q10 0 17.5 7t7.5 17t-7.5 17t-17.5 7h-512q-10 0 -17.5 -7t-7.5 -17t7.5 -17t17.5 -7h512zM775 530q10 0 17.5 7.5t7.5 17.5t-7.5 17t-17.5 7h-512
q-10 0 -17.5 -7t-7.5 -17t7.5 -17.5t17.5 -7.5h512zM775 360q10 0 17.5 7t7.5 17t-7.5 17t-17.5 7h-512q-10 0 -17.5 -7t-7.5 -17t7.5 -17t17.5 -7h512z" />
    <glyph glyph-name="help" unicode="&#xe607;" 
d="M1024 384q0 139 -68.5 257t-186.5 186.5t-257 68.5t-257 -68.5t-186.5 -186.5t-68.5 -257t68.5 -257t186.5 -186.5t257 -68.5q179 0 319 111q8 7 9 17t-5.5 18.5t-16.5 9.5t-18 -6q-126 -100 -288 -100q-94 0 -179.5 36.5t-147.5 98.5t-98.5 147.5t-36.5 179.5
t36.5 179.5t98.5 147.5t147.5 98.5t179.5 36.5t179.5 -36.5t147.5 -98.5t98.5 -147.5t36.5 -179.5q0 -132 -70 -244q-5 -9 -2.5 -19t11 -15.5t18.5 -3t16 11.5q77 123 77 270zM533 205q14 0 24 -10t10 -25v-9q0 -14 -10 -24t-24 -10v0q-14 0 -24 10t-10 24v9q0 15 10 25
t24 10v0zM375 477q0 -2 1 -6t8.5 -10.5t19 -6.5t18.5 6t8 11l2 6q-2 58 24.5 85t80.5 24q73 -8 75 -81q-5 -33 -54 -85q-65 -65 -65 -117v-35q1 -3 2 -6.5t8 -9t17.5 -5.5t17.5 5t8 10l2 6v24q0 44 62 104q64 59 64 109q-5 136 -142 141q-157 3 -157 -169z" />
    <glyph glyph-name="information" unicode="&#xe608;" 
d="M1024 384q0 139 -68.5 257t-186.5 186.5t-257 68.5t-257 -68.5t-186.5 -186.5t-68.5 -257t68.5 -257t186.5 -186.5t257 -68.5q179 0 319 111q8 7 9 17t-5.5 18.5t-16.5 9.5t-18 -6q-126 -100 -288 -100q-94 0 -179.5 36.5t-147.5 98.5t-98.5 147.5t-36.5 179.5
t36.5 179.5t98.5 147.5t147.5 98.5t179.5 36.5t179.5 -36.5t147.5 -98.5t98.5 -147.5t36.5 -179.5q0 -132 -70 -244q-5 -9 -2.5 -19t11 -15.5t18.5 -3t16 11.5q77 123 77 270zM500 153q0 -10 7 -17.5t17.5 -7.5t17.5 7.5t7 17.5v318q0 11 -7 18t-17.5 7t-17.5 -7t-7 -18
v-318zM500 578q0 -11 7 -18t17.5 -7t17.5 7t7 18v43q0 11 -7 18t-17.5 7t-17.5 -7t-7 -18v-43z" />
    <glyph glyph-name="top" unicode="&#xe609;" 
d="M510 509q12 14 25 0l270 -310q6 -6 15 -7t15.5 5t7 15t-5.5 15l-270 310q-18 20 -44 20.5t-45 -20.5l-280 -309q-6 -7 -6 -16t7 -14.5t15.5 -5.5t14.5 7z" />
    <glyph glyph-name="down" unicode="&#xe60a;" 
d="M478 252q19 -20 45 -20t44 21l270 309q6 7 5.5 15.5t-7 14.5t-15.5 5.5t-15 -7.5l-270 -309q-13 -14 -25 -1l-281 310q-6 7 -14.5 7.5t-15.5 -5.5t-7 -15t6 -15z" />
    <glyph glyph-name="right" unicode="&#xe60b;" 
d="M642 391q14 -12 0 -24l-309 -271q-7 -6 -7.5 -14.5t5 -15.5t14.5 -7.5t16 5.5l309 271q21 18 21 44t-20 44l-310 281q-7 6 -15.5 5.5t-14.5 -7t-5.5 -15.5t6.5 -15z" />
    <glyph glyph-name="pic" unicode="&#xe60c;" 
d="M475 320l-35 -4l228 -144l16 -11l15 12l313 231l12 9v14v260q0 60 -41.5 102.5t-100.5 42.5h-854h-28v-29v-722q0 -60 41.5 -102.5t100.5 -42.5h854h28v29v260q0 12 -8.5 20.5t-20 8.5t-20 -8.5t-8.5 -20.5v-260l29 29h-854q-35 0 -60 25.5t-25 61.5v722l-29 -29h854
q35 0 60 -25.5t25 -61.5v-260l12 24l-313 -231l32 1l-228 144l-19 12l-16 -16l-228 -231q-8 -9 -8 -21t8.5 -20t20 -8t20.5 8zM341 557.5q0 41.5 -29 71.5t-70 30t-70.5 -30t-29.5 -71.5t29.5 -71.5t70.5 -30t70 30t29 71.5zM199 557q0 18 12.5 31t30 13t30 -13t12.5 -31
t-12.5 -30.5t-30 -12.5t-30 12.5t-12.5 30.5z" />
    <glyph glyph-name="refresh" unicode="&#xe60d;" 
d="M512 896q-139 0 -257 -68.5t-186.5 -186.5t-68.5 -257t68.5 -257t186.5 -186.5t257 -68.5q123 0 231 54.5t180 151t93 216.5q3 17 5 34q1 11 -5.5 19t-16.5 9t-18.5 -5.5t-9.5 -16.5q-1 -16 -4 -31q-29 -165 -158 -273t-297 -108q-94 0 -179.5 36.5t-147.5 98.5
t-98.5 147.5t-36.5 179.5t36.5 179.5t98.5 147.5t147.5 98.5t179.5 36.5q139 0 254.5 -76t169.5 -203q4 -9 14 -13t19.5 0t13 14t-0.5 19q-60 140 -188 224.5t-282 84.5zM958 546l25 25h-259q-10 0 -17.5 -7.5t-7.5 -18t7.5 -17.5t17.5 -7h259q11 0 18 7t7 18v275
q0 10 -7 17.5t-17.5 7.5t-18 -7.5t-7.5 -17.5v-275z" />
    <glyph glyph-name="search" unicode="&#xe60e;" 
d="M1002 -96q-2 5 -3 7l-4 6q-3 4 -10 11q-10 12 -31 34q-26 27 -96 98q-69 70 -95 97q-20 21 -30 32q-5 6 -7 8q1 -1 3 -5q1 -6 0 -9t-7 -16q62 60 95.5 139.5t33.5 167.5q0 114 -55.5 211.5t-151 154t-208 56.5t-208.5 -56.5t-151.5 -154t-55.5 -212t55.5 -212t151.5 -154
t208 -56.5q8 0 16 1q5 0 15 1q17 2 23 2q13 0 47 10l8 2q13 3 26 7q7 3 11 4q10 3 15 12.5t2 19.5t-12.5 15t-19.5 2q-4 -2 -11 -4q-13 -4 -24 -7l-8 -2q-28 -8 -34 -8q-9 0 -28 -2q-9 -1 -13 -1q-7 -1 -13 -1q-99 0 -183 50t-132.5 135.5t-48.5 186t48.5 186t132.5 135.5
t183 50t183 -50t133 -135.5t49 -185.5q0 -78 -29.5 -147.5t-84.5 -122.5q-7 -13 -8 -16.5t1 -9.5q2 -4 3 -7q1 -2 4 -5q3 -5 9 -11q11 -12 31 -34q26 -27 95.5 -97.5t95.5 -97.5q20 -21 30 -32q5 -6 7 -8q-1 2 -2 6q-2 6 -1 9t9 16q-8 -7 -9 -17.5t6 -18.5t17 -9t18 6
q8 13 9 16.5t0 9.5z" />
    <glyph glyph-name="set" unicode="&#xe60f;" 
d="M826 248l-7 -12l8 -12l78 -116l4 31l-139 -135l29 3l-128 76l-10 6l-11 -4q-13 -5 -25 -10l-13 -4l-3 -14l-28 -131l24 19h-197l24 -18l-34 137l-3 13l-12 4q-11 4 -22 10l-12 5l-11 -7l-120 -77l30 -3l-139 136l4 -31l78 125l7 11l-6 11l-10 26l-4 13l-14 2l-135 28
l20 -24v191l-19 -23l141 33l12 3l5 11q5 13 12 25l6 13l-8 12l-73 110l-3 -30l138 136l-30 -3l123 -75l10 -6l12 5l20 8l12 4l3 13l33 133l-23 -19h196l-24 20l29 -136l3 -13l13 -5q15 -6 30 -13l12 -6l11 7l114 72l-30 3l140 -135l-4 31l-76 -120l-7 -11l5 -12
q6 -12 10 -25l5 -12l13 -4l134 -31l-19 24v-192l20 24l-142 -29l-13 -2l-5 -12q-4 -11 -9 -22zM858 260l5 -24l141 29l20 4v20v192v19l-19 4l-134 32l-6 -24l23 8q-5 15 -11 29l-22 -10l20 -13l77 120l10 17l-14 13l-140 135l-14 13l-16 -10l-114 -71l13 -21l11 22
q-17 8 -34 15l-9 -23l24 5l-29 136l-4 19h-20h-196h-19l-5 -19l-33 -133l24 -5l-8 23q-12 -4 -23 -9l9 -23l13 21l-123 74l-16 10l-14 -13l-138 -137l-14 -14l11 -17l73 -110l21 13l-22 11q-7 -14 -13 -28l23 -9l-6 23l-141 -33l-19 -4v-20v-191v-20l20 -4l134 -27l5 24
l-23 -9q5 -14 12 -28l22 10l-21 12l-78 -124l-10 -17l14 -13l139 -136l14 -13l16 10l120 77l-13 20l-10 -22l24 -10l9 22l-23 -5l34 -138l4 -19h19h197h20l4 20l28 131l-24 5l7 -23q15 5 28 11l-9 22l-12 -21l127 -76l16 -9l14 13l139 135l14 14l-11 17l-78 116l-21 -13
l22 -11q6 12 11 24zM731 396q0 86 -60.5 146.5t-146.5 60.5t-146.5 -60.5t-60.5 -146.5t60.5 -146.5t146.5 -60.5q44 0 84 18q9 4 13 13.5t0 18.5t-13.5 12.5t-19.5 -0.5q-30 -13 -64 -13q-65 0 -111.5 46.5t-46.5 112t46.5 112t112 46.5t112 -46.5t46.5 -112.5
q0 -17 -4 -34q-2 -10 3.5 -18.5t15 -10.5t18 3.5t11.5 15.5q4 22 4 44z" />
    <glyph glyph-name="survey" unicode="&#xe610;" 
d="M722 849q29 0 49.5 -20t20.5 -49v-342l7 16l-397 -403l17 7h-281q-29 0 -49.5 20.5t-20.5 49.5v745l-23 -24h677zM21 896v-23v-745q0 -48 34.5 -82t82.5 -34h281h9l7 7l397 402l7 7v10v342q0 48 -34 82t-83 34h-677h-24zM776 307l-17 -16l17 -17l93 -93l17 -16l16 16
l70 70l17 17l-17 16l-93 93l-17 17l-16 -17zM846 344l93 -93v33l-70 -70h33l-93 93v-33l70 70h-33zM519 51l-5 -5l-2 -7l-23 -116l-7 -34l35 7l116 23l7 1l5 5l257 256l17 17l-17 16l-93 93l-17 17l-16 -17zM776 274l93 -93v33l-257 -256l12 7l-117 -24l28 -27l23 116
l-6 -12l257 256h-33zM427 298q13 0 22 -9t9 -22v-9q0 -13 -9 -22.5t-22 -9.5v0q-14 0 -23 9.5t-9 22.5v9q0 13 9 22t23 9v0zM278 552q1 -2 2 -5.5t8 -10t17.5 -6.5t17 5.5t8.5 11.5l1 5q-2 54 23 79t76 23q67 -8 70 -76q-5 -30 -51 -79q-60 -61 -60 -109v-33q0 -2 1 -5.5
t7.5 -9t16.5 -5.5q4 0 8 1.5t6.5 3t4.5 3.5t3 4l2 4t1 3v1v23q0 40 58 96q61 56 61 102q-5 127 -133 132q-148 2 -148 -158z" />
    <glyph glyph-name="warning" unicode="&#xe611;" 
d="M598 738q-40 64 -100 64t-100 -64l-373 -602q-40 -65 -12.5 -116.5t103.5 -52.5h775q78 -2 105 40.5t-13 107.5q-1 4 -11 18l-8 13q-6 9 -16 11.5t-18.5 -3t-11 -15.5t2.5 -19v0l1 -1l1 -2v-1h1v-1l1 -1v-1h1v-1l1 -1v-1l1 -1v0l1 -2v0v0l2 -2l1 -2l1 -2l1 -2l1 -2l1 -1
l1 -1l1 -1v-2h1v-1l1 -1l1 -2v0q23 -38 11.5 -55t-60.5 -16h-775q-47 1 -61 26.5t11 65.5l373 602q26 41 58.5 41t57.5 -41l301 -472q6 -9 16 -11t18.5 3.5t11 16t-3.5 18.5zM475 276q0 -10 7 -17.5t17.5 -7.5t17.5 7.5t7 17.5v320q0 11 -7 18t-17.5 7t-17.5 -7t-7 -18v-320
zM474 119q1 -10 8 -17.5t17.5 -7.5t17.5 7.5t7 18.5v64q0 10 -7.5 17.5t-18 7t-17.5 -7.5t-7 -18v-64z" />
    <glyph glyph-name="add" unicode="&#xe612;" 
d="M853 363q9 0 15.5 6t6.5 15t-6.5 15t-15.5 6h-682q-9 0 -15.5 -6t-6.5 -15t6.5 -15t15.5 -6h682zM491 43q0 -9 6 -15.5t15 -6.5t15 6.5t6 15.5v682q0 9 -6 15.5t-15 6.5t-15 -6.5t-6 -15.5v-682z" />
    <glyph glyph-name="arrowup" unicode="&#xe69a;" 
d="M512 780l-480 -480h288v-512h384v512h288z" />
    <glyph glyph-name="yaochi" unicode="&#xe63e;" 
d="M244 -37h-106q-7 0 -12 5l-35 35q-5 6 -5 13v105q0 7 5 12l332 333q6 5 13 5t12 -5t5 -12.5t-5 -12.5l-327 -327v-91l25 -25h90l43 43v45q0 7 5 12t12 5h46l42 43v28q0 7 5 12t13 5h27l25 25v28q0 7 5 12t13 5h27l22 21q5 6 12 6t12.5 -5.5t5.5 -12.5t-6 -12l-26 -27
q-5 -5 -12 -5h-18v-17q0 -8 -5 -13l-35 -35q-5 -5 -12 -5h-18v-17q0 -8 -5 -13l-53 -52q-5 -6 -12 -6h-35v-35q0 -7 -5 -12l-53 -53q-5 -5 -12 -5zM682 279q-116 0 -198 82t-82 198.5t82 198.5t198 82t198.5 -82t82.5 -198.5t-82.5 -198.5t-198.5 -82zM682.5 805
q-101.5 0 -173.5 -72t-72 -173.5t72 -173.5t173.5 -72t173.5 72t72 173.5t-72 173.5t-173.5 72zM806 418q-7 0 -12 5l-248 248q-5 5 -5 12.5t5 12.5q56 56 136 56t136.5 -56.5t56.5 -136.5t-56 -136q-6 -5 -13 -5zM584 683l221 -222q38 46 34.5 106.5t-45.5 103.5
q-47 46 -112 46q-55 0 -98 -34zM114 9q-7 0 -12 5t-5 12.5t5 12.5l292 292q5 5 12.5 5t12.5 -5t5 -12t-5 -13l-292 -292q-6 -5 -13 -5z" />
    <glyph glyph-name="clock" unicode="&#xe613;" 
d="M1024 384q0 139 -68.5 257t-186.5 186.5t-257 68.5t-257 -68.5t-186.5 -186.5t-68.5 -257t68.5 -257t186.5 -186.5t257 -68.5q172 0 309 104q8 6 9.5 16t-4.5 18t-16 9.5t-18 -4.5q-124 -94 -280 -94q-94 0 -180 36.5t-148 98.5t-98.5 148t-36.5 180t36.5 180t98.5 148
t148 98.5t180 36.5t180 -36.5t148 -98.5t98.5 -148t36.5 -180q0 -144 -81 -262q-5 -8 -3.5 -18t10 -15.5t18.5 -4t16 10.5q89 130 89 289zM488 286q0 -10 7 -17t17 -7t17 7t7 17v366q0 10 -7 17.5t-17 7.5t-17 -7.5t-7 -17.5v-366zM482 424q-7 8 -17 8.5t-17.5 -6
t-8.5 -16.5t6 -18l171 -195q6 -7 16 -8t18 6t8.5 17t-6.5 17z" />
    <glyph glyph-name="mobile2" unicode="&#xe68c;" 
d="M747 -128h-470q-44 0 -75 31.5t-31 75.5v810q0 44 31 75.5t75 31.5h470q44 0 75 -31.5t31 -75.5v-810q0 -44 -31 -75.5t-75 -31.5zM277 853q-26 0 -45 -18.5t-19 -45.5v-810q0 -27 19 -45.5t45 -18.5h470q26 0 45 18.5t19 45.5v810q0 27 -19 45.5t-45 18.5h-470zM832 683
h-640q-9 0 -15 6t-6 15t6 15t15 6h640q9 0 15 -6t6 -15t-6 -15t-15 -6zM832 43h-640q-9 0 -15 6t-6 15t6 15t15 6h640q9 0 15 -6t6 -15t-6 -15t-15 -6zM512 21q-18 0 -30.5 -12.5t-12.5 -30t12.5 -30t30.5 -12.5t30.5 12.5t12.5 30t-12.5 30t-30.5 12.5v0zM619 768h-214
q-9 0 -15 6t-6 15t6 15.5t15 6.5h214q9 0 15 -6.5t6 -15.5t-6 -15t-15 -6z" />
    <glyph glyph-name="mima" unicode="&#xe626;" 
d="M509 347q-34 0 -58.5 -24t-24.5 -59q0 -27 17 -49q0 -1 1 -1q20 -25 22 -43v-47q0 -18 12.5 -30.5t30.5 -12.5t30.5 12.5t12.5 30.5v48v2v0q0 3 2 7q5 15 19 32q1 0 1 1q17 22 17 50q0 35 -24 59t-58 24zM545 237q-32 -37 -30 -65v-48q0 -6 -6 -6t-6 6v48q0 30 -31 66
q-8 12 -8 26q0 19 13 32.5t31.5 13.5t32 -13.5t13.5 -32.5q0 -15 -9 -27zM823 506h-46v120v2q-13 99 -88 165q-76 67 -177 67q-110 0 -188 -78t-78 -188v-88h-51q-27 0 -45.5 -19t-18.5 -45v-452q0 -27 18.5 -45.5t45.5 -18.5h390h1h235h2q26 0 44.5 18.5t18.5 45.5v452
q0 26 -18.5 45t-44.5 19zM849 -10q0 -11 -7 -18.5t-17 -8.5v0h-246h-2h-382q-11 0 -19 8t-8 19v452q0 11 8 18.5t19 7.5h69h3h3h353h2q48 0 86 25q6 4 7.5 12t-2.5 14t-11.5 8t-14.5 -3q-30 -20 -66 -18h-1h-340v88q0 95 67 162t162 67q87 0 152 -58q64 -56 75 -141v-136
q0 -2 1 -5v-1q4 -14 19 -14h64q11 0 18.5 -7.5t7.5 -18.5v-452z" />
    <glyph glyph-name="qunzu" unicode="&#xe627;" 
d="M79 -26h-37q-8 0 -13.5 5.5t-5.5 13.5v36q-4 55 37 106q24 30 61 51q43 24 99 34h1q57 8 91 22q-1 7 -1 16q-2 22 -11 42t-17.5 30.5t-23.5 28.5q-17 19 -24 29q-31 45 -33 97v1q0 25 13 44q-9 61 0 119q4 56 53 100q-2 11 0 22q9 48 73 51q3 0 8 1h2q8 0 14 -5t6.5 -13
t-5 -13.5t-12.5 -6.5h-3h-8q-34 -2 -38 -22q-1 -7 1 -15q4 -10 -5 -19l-7 -7q-6 -4 -12.5 -11.5t-17 -27t-11.5 -37.5q0 -1 -1 -2q-9 -58 1 -116q2 -9 -4 -16q-10 -11 -10 -26q3 -42 27 -77q5 -8 21 -25q17 -20 26.5 -32.5t20.5 -37.5t14 -53q2 -21 1 -31q-1 -8 -7 -13
q-12 -10 -46 -19.5t-69 -14.5q-94 -16 -138 -71q-32 -40 -28 -81v-1v-19h18q8 0 13.5 -5.5t5.5 -13t-5.5 -13t-13.5 -5.5zM751 -80q-5 0 -10 3q-34 22 -91 24h-21l-33 -1v0h-438q-7 0 -12.5 5.5t-5.5 13.5v21q-2 37 20 75q19 34 55 57q44 28 109 40h1q32 4 66 13
q25 7 41.5 14.5t19 10t3.5 4.5q0 2 1 4q2 10 -1 37q-2 30 -14.5 57.5t-22.5 41.5t-29 35q-17 19 -23 28q-28 40 -30 86v1q0 18 17 34v0v0q0 2 -1 6v3q-12 65 -1 130q1 22 13 44.5t19.5 30.5t13.5 12v0q11 10 15 17l1 1q0 1 -1 2q-6 14 -4 24q4 18 24 23q7 2 20 2l1 1
q42 2 66 0q47 -4 87 -13t63.5 -18.5t42 -21.5t24 -16.5t8.5 -7.5v-1q20 -24 30 -59q2 -10 4 -19q6 -37 3 -91q-1 -19 -4 -43q-1 -4 -0.5 -4.5l2.5 -2.5q9 -10 12 -18q2 -7 2 -15v-1q-3 -46 -30 -86q-6 -9 -23 -28q-19 -21 -29.5 -35t-22.5 -41.5t-15 -57.5q-2 -27 -1 -37
l2 -4q0 -2 3 -4.5t19 -10t42 -14.5q34 -9 66 -13h1q65 -13 109 -41q36 -24 56 -57q21 -37 19 -74v-21q0 -8 -5.5 -13.5t-13.5 -5.5h-119q-1 0 -3 1h-27q-8 0 -13.5 5.5t-5.5 13t5.5 13t13.5 5.5h49h3h78v3v2q2 26 -15 54q-15 25 -44 44q-37 23 -94 34q-35 5 -71 14
q-77 20 -88 52q-7 13 -3 57q3 36 17.5 68.5t26 48t32.5 39.5q15 17 20 25q20 29 23 66v3l-3 3t-4 5q-11 13 -8 34q3 22 4 39q2 50 -3 83q0 1 -1 1q0 6 -2 15q-7 26 -22 44q-13 13 -43 28q-63 29 -157 37q-22 1 -61 -1h-1h-6q5 -13 2 -23q-2 -6 -6 -12q-7 -12 -23 -25
q-32 -29 -33 -61v-3q-10 -58 1 -118v-2q5 -27 -11 -41v-1q-4 -3 -5 -4v-1q3 -37 23 -66q5 -8 21 -25q20 -24 32 -39.5t26.5 -48t17.5 -68.5q4 -44 -3 -57q-12 -32 -89 -52q-35 -9 -71 -14q-57 -10 -94 -34q-29 -19 -44 -45q-17 -29 -15 -54v-1v-3h418h34v0h21v0
q68 -1 111 -30q7 -4 8.5 -11.5t-2.5 -14.5q-6 -8 -16 -8zM667 210l2 -2z" />
    <glyph glyph-name="addhead" unicode="&#xe628;" 
d="M981 315h-265q-7 0 -12.5 5.5t-5.5 13.5t5.5 13.5t12.5 5.5h265q8 0 13.5 -5.5t5.5 -13.5t-5.5 -13.5t-13.5 -5.5zM848.5 183q-7.5 0 -13 5.5t-5.5 13.5v264q0 8 5.5 13.5t13 5.5t13 -5.5t5.5 -13.5v-264q0 -8 -5.5 -13.5t-13 -5.5zM695 -77q-6 0 -10 4q-36 23 -97 25
h-22h-36v0h-478q-7 0 -12.5 5.5t-5.5 13.5v22q-2 39 21 78q20 36 58 61q46 29 115 41q0 1 1 1q35 4 71 14q27 7 44 15t20 11t3 5l2 4q2 10 -1 40q-3 32 -16 61.5t-24 44t-31 37.5q-18 20 -24 29q-29 42 -32 91v1q0 19 18 35v0l1 1q0 1 -1 7q0 2 -1 2q-12 70 -1 138
q1 23 14 46.5t21 32t13 13.5h1q12 10 16 17l1 2q0 1 -1 3q-6 14 -4 25q4 18 24 23q8 2 21 3h1q44 2 71 0q49 -4 91 -13.5t67 -19.5t45 -22.5t25.5 -17.5t8.5 -8v-1q22 -25 31 -62q3 -11 4 -20q7 -40 4 -96q-1 -20 -5 -45q0 -5 1 -6q0 -1 2 -3q9 -10 12 -19q2 -7 2 -15v-1
q-2 -49 -31 -91q-7 -9 -24 -29q-21 -23 -32 -37.5t-24 -44t-16 -61.5q-2 -30 0 -40q1 -2 1 -4q1 -2 3.5 -5t19.5 -11t45 -15q36 -10 71 -14l1 -1q69 -12 115 -43q38 -24 59 -60q22 -39 20 -77v-22q0 -8 -5.5 -13.5t-13.5 -5.5h-126h-3h-29q-8 0 -13.5 5.5t-5.5 13.5
t5.5 13.5t13.5 5.5h52q2 0 3 -1h85v5v1q2 28 -17 59q-16 27 -46 46q-40 25 -101 37q-37 5 -75 15q-81 21 -93 54q-7 14 -3 60q4 38 19 72.5t27.5 51t33.5 40.5q17 19 22 27q22 32 25 70v4l-4 4t-4 5q-12 14 -9 35q4 23 5 42q3 53 -4 88v1q-1 7 -3 16q-7 28 -23 47
q-14 14 -46 29q-66 32 -166 40q-24 2 -66 -1h-1h-8q6 -14 3 -25q-2 -6 -6 -12q-8 -13 -24 -27q-34 -30 -35 -65q0 -2 -1 -3q-11 -62 1 -126q0 -1 1 -2q5 -27 -11 -42l-1 -1q-5 -4 -5 -5v0v0v-2q3 -39 25 -70q5 -8 21 -27q22 -24 34.5 -40.5t27.5 -51t18 -72.5q5 -46 -3 -60
q-11 -33 -93 -54q-37 -10 -75 -15q-61 -11 -100 -37q-31 -20 -47 -47q-18 -32 -16 -58v-1v-5l494 1v0h23v0q71 -2 117 -32q7 -4 8.5 -12t-2.5 -14q-6 -9 -16 -9v0zM374 229l-2 -2zM591 229q1 -1 1 -2q0 1 -1 2z" />
    <glyph glyph-name="tongxunlu" unicode="&#xe629;" 
d="M867 -84q-7 0 -12 4q-18 14 -58 20t-66 6h-538q-47 0 -80.5 33.5t-33.5 80.5v31q-20 6 -33 23t-13 38v100q0 21 13 38t33 23v205q-20 6 -33 23t-13 39v99q0 22 13 39t33 23v9q0 47 33.5 80t80.5 33h690q47 0 80 -33t33 -80v-690v-1l-1 -20q0 -30 -18.5 -49.5t-47.5 -19.5
t-49 20t-20 49v22v2q0 5 -0.5 11.5t-7 21.5t-18.5 28t-38 26.5t-62 20.5q-30 4 -60 12q-66 17 -76 45q-6 12 -3 49q3 31 15 58.5t22 40.5t28 33q12 14 16 20q17 24 19 54v1q0 1 -2 2q-2 2 -3 4q-11 12 -8 31q3 18 4 32q2 41 -3 69v1q-1 5 -3 12q-5 21 -17 35q-11 11 -35 23
q-52 24 -129 30q-19 2 -51 0h-1h-1q3 -9 0 -18q-1 -5 -5 -10q-6 -10 -20 -22q-25 -23 -26 -48v-3q-9 -48 0 -98q1 0 1 -1q4 -24 -10 -37v-1q-3 -2 -3 -3q2 -29 18 -53q4 -6 17 -20q18 -20 27.5 -33t22 -40.5t14.5 -58.5q4 -37 -2 -49q-10 -28 -76 -45q-30 -8 -60 -12
q-84 -15 -113 -64q-14 -23 -12 -43q1 -8 -4 -14t-13 -6.5t-14 4.5t-6 13q-3 31 17 65q16 29 47 48q37 24 92 34h1q25 4 52 10q46 12 54 23q0 2 1 3q1 9 -1 30q-2 25 -12 47.5t-18.5 34t-24.5 28.5q-14 16 -19 24q-24 34 -26 73v1q0 17 15 30q0 1 -1 3v3q-10 54 -1 109
q1 19 11.5 38t16.5 26t11 11v0q9 7 12 12v1q-5 12 -3 22q3 16 22 21q6 2 17 2h1q35 2 56 0q86 -6 145 -35q31 -15 44 -30h1q17 -21 25 -51q2 -9 3 -16q5 -32 3 -77q-1 -16 -4 -36v-2l1 -1q8 -9 11 -17q2 -5 2 -13v-1q-2 -39 -26 -73q-5 -8 -19 -24q-16 -17 -24.5 -28.5
t-18.5 -34t-12 -47.5q-2 -21 -1 -30q1 -1 1 -3q8 -11 54 -23q27 -6 52 -10h1q56 -10 93 -35q30 -20 47 -49q19 -32 17 -63l1 -21v-1q0 -14 8.5 -23t22.5 -9q15 0 22 10t7 22v1l1 20v690q0 31 -22.5 53.5t-53.5 22.5h-690q-32 0 -54 -22.5t-22 -53.5v-26q0 -7 -5 -12.5
t-13 -5.5v0h-2q-11 0 -18.5 -8t-7.5 -19v-99q0 -11 7.5 -19t18.5 -8q14 0 18 -13l1 -3q1 -2 1 -5v-234q0 -4 -2 -8l-1 -1q-5 -11 -17 -11q-11 0 -18.5 -7.5t-7.5 -18.5v-100q0 -11 7.5 -18.5t18.5 -7.5q12 0 17 -11l1 -1q2 -4 2 -9v-45q0 -32 22 -54t54 -22h538
q13 0 31.5 -1t57.5 -9.5t58 -24.5q6 -4 7 -12t-4 -14q-5 -7 -14 -7v0zM627 251l2 -2zM451 251l-2 -2z" />
    <glyph glyph-name="tool" unicode="&#xe62a;" 
d="M835 -60q-46 0 -78 31l-209 210l-1 1q-5 5 -11 2h-1q-70 -33 -148 -33q-72 0 -137 28q-64 27 -112.5 76t-75.5 112q-28 66 -28 138q0 51 15 101q1 1 1 2q8 18 23 22q17 4 31 -8q0 -1 1 -1l157 -157q31 -31 76 -31t76 31l15 15q32 32 32 76.5t-32 76.5l-154 154
q-16 16 -12 34q3 15 20 22h1q51 16 103 16q72 0 138 -28q63 -27 112 -76t76 -112q27 -66 27 -137q0 -72 -27 -137q-1 -2 -2 -3q-5 -8 -1 -15q3 -5 6 -8l1 -1l205 -205q40 -40 30 -95q-1 -8 -7 -12.5t-14 -3t-12.5 8t-2.5 13.5q6 37 -20 63l-205 204q-8 7 -13 16.5t-7 24
t8 29.5q24 58 24 121q0 130 -92.5 222.5t-223.5 92.5q-41 0 -82 -11l151 -151q42 -42 42 -102.5t-42 -102.5l-15 -15q-43 -43 -103 -43t-103 43l-152 151q-11 -41 -11 -84q0 -131 92.5 -223.5t222.5 -92.5q70 0 132 29q21 7 34 3t22 -14l209 -209q25 -25 59 -21
q55 18 107 22q8 0 14 -5t6.5 -12.5t-4.5 -13.5t-13 -6q-51 -4 -99 -21h-4q-7 -1 -15 -1z" />
    <glyph glyph-name="yonghu" unicode="&#xe62b;" 
d="M703 -99q-5 0 -10 3q-37 24 -97 26h-22l-35 -1v0h-446q-8 0 -13.5 5.5t-5.5 13.5v23q-2 38 21 78q21 35 59 60q46 30 114 42h1q35 5 71 14q28 8 45 16t19.5 11t3.5 4q0 2 1 4q2 11 0 40q-3 32 -16 61.5t-24 44t-31 37.5q-18 20 -25 30q-29 42 -31 90v1q0 19 17 35l1 1v0
q0 2 -1 7v3q-13 69 -1 138q1 22 13.5 45.5t20.5 32t14 13.5v0q12 11 17 18q0 1 1 2q-1 1 -1 2q-6 15 -4 25q3 18 24 24q7 2 20 2h2q44 3 70 1q49 -4 91.5 -14t67 -20t44.5 -22t25.5 -17t8.5 -9h1q21 -26 31 -62q3 -12 4 -20q7 -40 3 -97q-1 -20 -4 -45q-1 -5 0 -6l3 -3
q9 -9 12 -18q2 -7 2 -16v-1q-3 -48 -32 -90q-6 -10 -24 -30q-20 -23 -31 -37.5t-24 -44t-16 -61.5q-3 -29 -1 -40l2 -4q0 -1 3 -4t20 -11t44 -16q36 -9 71 -14h1q70 -13 116 -43q38 -25 58 -60q23 -39 20 -78v-22q0 -8 -5 -13.5t-13 -5.5h-177q-8 0 -13.5 5.5t-5.5 13.5
t5.5 13.5t13.5 5.5h158v4v2q2 28 -16 58q-17 27 -47 47q-39 25 -100 36q-38 5 -75 15q-82 22 -93 55q-7 13 -3 60q3 37 18 71.5t27.5 51t34.5 41.5q16 18 22 26q21 32 24 71v3t-4 5l-4 4q-11 14 -8 36q3 23 4 41q3 53 -3 89v1q-1 6 -4 15q-7 29 -23 47q-14 15 -45 30
q-67 32 -167 39q-24 2 -65 0h-2q-4 0 -7 -1q6 -13 2 -25q-2 -6 -6 -12q-7 -12 -24 -26q-34 -31 -35 -66v-2q-11 -63 1 -126v-3q5 -27 -11 -42v0l-6 -6v0v0v-1q3 -39 25 -71q5 -8 22 -26q21 -25 33.5 -41.5t28 -51t18.5 -71.5q4 -47 -3 -60q-12 -33 -93 -55q-38 -10 -75 -15
q-61 -10 -100 -35q-30 -20 -47 -47q-18 -31 -17 -59v-2v-4h427h36v0h22h1q71 -2 117 -32q6 -4 7.5 -11.5t-2.5 -14.5q-5 -8 -16 -8zM631 206q1 0 2 -1q-1 1 -2 1zM414 206q-1 0 -1 -1q0 1 1 1z" />
    <glyph glyph-name="rili" unicode="&#xe650;" 
d="M222 227q-8 0 -13.5 -5.5t-5.5 -13t5.5 -13t13.5 -5.5h231q8 0 13.5 5.5t5.5 13.5v364q0 8 -5.5 13.5t-13.5 5.5h-231q-8 0 -13.5 -5.5t-5.5 -13t5.5 -13t13.5 -5.5h213v-145h-213q-8 0 -13.5 -5t-5.5 -13t5.5 -13t13.5 -5h213v-147h-213zM840 209v364q0 8 -5 13.5
t-13 5.5h-232q-7 0 -12.5 -5.5t-5.5 -13.5v-364q0 -8 5.5 -13.5t12.5 -5.5h232q8 0 13 5.5t5 13.5zM804 227h-195v328h195v-328zM877 819h-117v21q0 7 -5 12.5t-13 5.5t-13.5 -5.5t-5.5 -12.5v-21h-403v21q0 7 -5.5 12.5t-13 5.5t-13 -5.5t-5.5 -12.5v-21h-116
q-47 0 -80.5 -33.5t-33.5 -80.5v-589q0 -47 33.5 -80t80.5 -33h487v0q20 -1 37 -4q41 -9 63 -32q5 -6 13 -6q7 0 13 4q5 5 5.5 13t-4.5 13q-20 22 -52.5 34t-48 13.5t-27.5 0.5h-486q-32 0 -54.5 23t-22.5 54v589q0 32 22.5 54.5t54.5 22.5h116v-27q0 -8 5.5 -13.5t13 -5.5
t13 5.5t5.5 13.5v27h403v-27q0 -8 5.5 -13.5t13.5 -5.5t13 5.5t5 13.5v27h117q31 0 54 -22.5t23 -54.5v-589q0 -31 -23 -54t-54 -23h-39q-7 0 -12.5 -5t-5.5 -13t5.5 -13t12.5 -5h39q47 0 80 33t33 80v589q0 47 -33 80.5t-80 33.5z" />
    <glyph glyph-name="tupian" unicode="&#xe62c;" 
d="M853 3h-490l-210 1h-2q-38 4 -64 33q-27 28 -27 68v526q0 42 30 72t72 30h691q42 0 71.5 -30t29.5 -72v-225v-1q-2 -51 16 -85q3 -7 1 -14.5t-9 -11t-14.5 -1t-10.5 8.5q-22 43 -20 104v225q0 27 -18.5 45.5t-45.5 18.5h-691q-27 0 -46 -18.5t-19 -45.5v-526
q0 -25 16.5 -43t40.5 -21h209h490q27 0 45.5 18.5t18.5 45.5v93q-1 19 -20 43v0l-22 29l-117 155q-4 5 -12 13.5t-30.5 21.5t-43.5 10q-59 -6 -109 -118q-26 -58 -52 -89t-55 -38q-21 -5 -43.5 2.5t-37 17t-40.5 30.5l-5 4q-35 27 -63 16.5t-95 -76.5q-6 -5 -13.5 -5
t-13 5.5t-5.5 13.5t5 13q72 71 108 84q48 19 100 -22l5 -4q22 -17 33.5 -25t27.5 -14.5t28 -3.5q39 9 82 106q59 131 139 140q19 2 38.5 -3.5t32.5 -13.5t25.5 -19t16.5 -16t7 -8l117 -155l22 -28q27 -35 27 -65v0v-94q0 -42 -29.5 -72t-71.5 -30zM312.5 449
q-31.5 0 -54 22.5t-22.5 54.5t22.5 54.5t54 22.5t54 -22.5t22.5 -54.5t-22.5 -54.5t-54 -22.5zM312.5 565q-16.5 0 -28 -11.5t-11.5 -28t11.5 -28t28 -11.5t28 11.5t11.5 28t-11.5 28t-28 11.5z" />
    <glyph glyph-name="fenxiang" unicode="&#xe62d;" 
d="M689 137q-48 0 -83 -33l-291 222q15 26 15 56.5t-15 57.5l296 226q33 -30 78 -30q49 0 84 35t35 84.5t-35 84.5t-84 35t-84 -35t-35 -85q0 -33 17 -61l-294 -225q-35 33 -82 33q-50 0 -85 -35t-35 -84.5t35 -84t85 -34.5q47 0 82 33l291 -223q-14 -26 -14 -56
q0 -49 35 -84t84 -35t84 35t35 84t-35 84t-84 35zM689 838q34 0 58.5 -24.5t24.5 -58.5t-24.5 -58t-58.5 -24t-58 24t-24 58t24 58.5t58 24.5zM210.5 300q-34.5 0 -58.5 24.5t-24 58.5t24 58t58.5 24t58.5 -24t24 -58t-24 -58.5t-58.5 -24.5zM689 -64q-34 0 -58 24t-24 58
t24 58t58 24t58.5 -24t24.5 -58t-24.5 -58t-58.5 -24z" />
    <glyph glyph-name="yingyezhizhao" unicode="&#xe69b;" 
d="M253 362h14v-15h54v-12h-54v-11h-14v11h-43v-11h-13v11h-53v12h53v15h13v-15h43v15v0zM149 319h166v-33h-14v21h-138v-21h-14v33v0zM164 238h136v-55h-14v9h-108v-9h-14v55v0zM177 294h110v-46h-14v5h-82v-5h-14v46v0zM286 227h-108v-24h108v24v0zM273 283h-82v-19h82v19
v0zM325 209h58v149h15v-149h32v149h15v-149h59v-14h-179v14v0zM346 323q15 -35 28 -75l-14 -6q-12 37 -28 75l14 6v0zM451 247q19 38 31 74l15 -6q-17 -42 -33 -74l-13 6v0zM505 264q14 3 26 6v43h-24v13h24v35h13v-35h22v-13h-22v-39q14 4 20 5q1 -8 2 -13l-22 -6v-55
q0 -20 -16 -20q-6 0 -19 1q0 6 -2 14q12 -1 16 -1q8 0 8 8v49q-19 -6 -24 -7l-2 15v0zM568 273l8 11q10 -7 16 -10q2 16 2 38h-21v14h21q1 18 1 35h14v-35h49v-51q-1 -50 4 -67q1 -4 3.5 -4t4.5 5q2 9 4 29q8 -4 14 -5q-3 -18 -6 -30q-4 -16 -16 -16t-18 17q-4 15 -4 57v51
h-36q0 -27 -3 -47q14 -10 28 -19l-9 -13l-22 16q-9 -39 -38 -66q-5 5 -11 12q29 27 36 63q-12 9 -21 15v0zM709 228l13 -5q-7 -16 -19 -39q-10 4 -13 6q13 22 19 38v0zM699 352h58v-118h-13v7h-32v-8h-13v119v0zM744 340h-32v-37h32v37v0zM712 253h32v38h-32v-38v0zM740 220
l12 6q10 -19 17 -34l-13 -6q-6 16 -16 34v0zM770 341v12h88q-1 -17 -2 -33q-2 -23 -24 -23q-6 0 -21 1q-1 7 -3 14q14 -2 22 -2q12 0 13 11q1 13 1 20h-38q-1 -37 -34 -55q-4 5 -9 11q29 15 29 44h-22v0zM776 288h81v-56h-13v6h-54v-6h-14v56v0zM787 222l12 5q9 -16 17 -33
l-13 -6q-8 18 -16 34v0zM844 277h-54v-27h54v27v0zM831 223l11 7q12 -17 23 -35l-13 -7q-9 17 -21 35v0zM975 606h-926q-12 0 -20 -8t-8 -20v-577q0 -12 8 -20t20 -8h218q11 0 19.5 8t8.5 20v52q0 10 7.5 17.5t18.5 7.5t18.5 -7.5t7.5 -17.5v-52q0 -12 8 -20t20 -8h233
q12 0 20 8t8 20v52q0 10 7.5 17.5t18.5 7.5t18.5 -7.5t7.5 -17.5v-52q0 -12 8.5 -20t19.5 -8h259q12 0 20 8t8 20v577q0 12 -8 20t-20 8zM946 29h-205v24q0 34 -22.5 58t-56.5 24t-58.5 -24t-24.5 -58v-24h-175v24q0 34 -24.5 58t-58.5 24t-58.5 -24t-24.5 -58v-24h-160v521
h868v-521v0zM353 399h319l-9.5 12.5t-26.5 28t-39.5 32t-51.5 24t-59 4.5t-65.5 -28.5t-67.5 -72.5z" />
    <glyph glyph-name="youxiang" unicode="&#xe6af;" 
d="M515.5 -148q-90.5 0 -173.5 36t-143 96t-95.5 143t-35.5 174t35.5 174t95.5 143.5t143 96t173 35.5q91 0 174 -35.5t143 -96t95.5 -143.5t35.5 -174t-35.5 -174t-95.5 -143t-143 -96t-173.5 -36zM515.5 706q-109.5 0 -202.5 -54t-147 -147.5t-54 -203.5t54 -203.5
t147 -147.5t202 -54q110 0 203 54.5t147 147.5t54 203t-54 203t-147 147.5t-202.5 54.5zM771 92h-498q-21 0 -35.5 15t-14.5 36v316q0 21 14.5 36t35.5 15h498q21 0 35.5 -15t14.5 -36v-316q0 -21 -14.5 -36t-35.5 -15zM758 129l-156 142l-25 -23q-23 -20 -55 -20t-55 20
l-25 23l-156 -142h472zM260 440v-285l155 144zM285 473l198 -181q26 -24 38.5 -24t38.5 24l199 181h-474zM784 440l-155 -141l155 -144v285z" />
    <glyph glyph-name="shangjia" unicode="&#xe62e;" 
d="M995 489q0 3 -1 6l-65 207v94q0 9 -6.5 15t-15.5 6h-794q-9 0 -15 -6.5t-6 -14.5v-87q0 -1 -1 -2l-67 -211q-1 -3 -1 -6l-1 -49v0q0 -35 16.5 -65t44.5 -49q-2 -4 -2 -8v-342q0 -9 6.5 -15t15.5 -6h809q9 0 15 6t6 15v293q0 9 -6 15t-15 6t-15.5 -6t-6.5 -15v-272h-766
v311q18 -5 35 -5q37 0 68 17.5t49 47.5q19 -30 49.5 -47.5t67.5 -17.5q36 0 66.5 17.5t49.5 46.5q18 -29 49 -46.5t67 -17.5t67 17.5t49 47.5q19 -30 50 -47.5t67 -17.5q57 0 97 40.5t40 96.5v0v48zM135 774h751v-52h-751v52zM858 347q-39 0 -66.5 27.5t-27.5 66.5
q0 9 -6.5 15.5t-15.5 6.5h-1q-9 0 -15.5 -6.5t-6.5 -15.5q0 -39 -27.5 -66.5t-66.5 -27.5t-67 27.5t-28 66.5q0 9 -6 15.5t-15 6.5v0q-9 0 -15.5 -6.5t-6.5 -15.5q0 -39 -27.5 -66.5t-66.5 -27.5t-67 27.5t-28 66.5q0 9 -6 15.5t-15 6.5h-2q-9 0 -15 -6.5t-6 -15.5
q0 -39 -27.5 -66.5t-67 -27.5t-67 27.5t-27.5 66.5v45l62 193h764l61 -194v-44q0 -39 -27.5 -66.5t-66.5 -27.5z" />
    <glyph glyph-name="attachment" unicode="&#xe614;" 
d="M472 777l-379 -399q-72 -75 -71.5 -181.5t74.5 -180.5l3 -4q74 -75 178.5 -75.5t178.5 73.5l500 499q59 59 60 143.5t-56 144.5l-19 -17l-18 -18l4 -4l19 17l18 18q-58 61 -140 60.5t-140 -62.5l-474 -508q-29 -31 -27.5 -73t32.5 -70l11 -11q31 -29 73 -27.5t70 32.5
l369 395q7 8 7 18.5t-8 17.5t-18.5 6.5t-17.5 -7.5l-369 -396q-14 -15 -35 -15.5t-36 13.5l-12 11q-15 14 -15.5 35t13.5 36l474 509q43 45 103 45.5t103 -44.5q11 -11 25 -7t18 16.5t-6 25.5l-4 4q-11 12 -25 7.5t-18 -17t6 -25.5q44 -45 43 -109t-46 -108l-500 -499
q-59 -59 -142.5 -58.5t-142.5 59.5l-3 4q-59 60 -60 145.5t57 146.5l380 399q7 7 7 17.5t-8 18t-18.5 7t-17.5 -7.5v0z" />
    <glyph glyph-name="renyuanshezhi" unicode="&#xe66c;" 
d="M824 278q0 32 -23 55t-55 23h-108q-33 0 -56 -23t-23 -55v-55h265v55zM935 716h-844q-5 0 -10 -2q-1 0 -2 -1l-1 -1q-4 -2 -5 -3q0 -1 -0.5 -2t-1.5 -1q-2 -4 -3 -5v-0.5v-1.5q-2 -4 -2 -8v-614q0 -10 7 -17t18 -7h841q11 0 18 7t7 17v355v0v265q0 19 -22 19zM919 90
h-815v588h815v-588zM616 488.5q0 -31.5 22 -53.5t53.5 -22t54 22t22.5 53.5t-22.5 53.5t-54 22t-53.5 -22t-22 -53.5zM180 527h284q8 0 13.5 5.5t5.5 13t-5.5 13t-13.5 5.5h-284q-8 0 -13.5 -5.5t-5.5 -13t5.5 -13t13.5 -5.5zM180 375h284q8 0 13.5 5.5t5.5 13.5t-5.5 13.5
t-13.5 5.5h-284q-8 0 -13.5 -5.5t-5.5 -13.5t5.5 -13.5t13.5 -5.5zM180 223h284q8 0 13.5 5.5t5.5 13.5t-5.5 13.5t-13.5 5.5h-284q-8 0 -13.5 -5.5t-5.5 -13.5t5.5 -13.5t13.5 -5.5z" />
    <glyph glyph-name="print" unicode="&#xe615;" 
d="M24 630h878q30 0 51.5 -21.5t21.5 -51.5v-440l25 24h-147l25 -24v97v25h-25h-682h-25v-25v-97l25 24h-49q-30 0 -51.5 21.5t-21.5 52.5v440l-25 -25v0zM24 679h-24v-24v-440q0 -51 35.5 -87t86.5 -36h49h24v25v97l-24 -24h682l-24 24v-97v-25h24h147h24v25v440
q0 50 -35.5 86t-86.5 36h-878v0zM756 -104l24 25h-536l24 -25v224q0 10 -7 17t-17 7t-17.5 -7t-7.5 -17v-224q0 -10 7.5 -17t17.5 -7h536q10 0 17.5 7t7.5 17v224q0 10 -7.5 17t-17.5 7t-17 -7t-7 -17v-224zM207 459h317v49h-317v-49v0zM219 655v195l-24 -24h634l-24 24
v-195h48v195v25h-24h-634h-24v-25v-195h48v0z" />
    <glyph glyph-name="box" unicode="&#xe616;" 
d="M58 634l432 -244q12 -7 24 0l431 244q13 8 12.5 22.5t-13.5 21.5l-431 215q-11 6 -22 0l-432 -215q-13 -7 -13.5 -21.5t12.5 -22.5v0zM82 677l-1 -43l432 216h-22l431 -216l-1 43l-431 -245h24l-432 245v0zM477 391v-470q0 -14 12.5 -21t24.5 0l460 260q13 7 13 21v317
q0 10 -7.5 17t-17.5 7t-17 -7t-7 -17v-317l12 21l-460 -259l36 -22v470q0 10 -7 17.5t-17 7.5t-17.5 -7.5t-7.5 -17.5v0zM514 -58l-431 260l12 -21v460q0 11 -7.5 18t-17.5 7t-17 -7t-7 -18v-460q0 -14 12 -21l431 -260q9 -5 19 -2.5t15 11t2.5 18.5t-11.5 15v0zM173 448
l144 -87q8 -5 18 -2.5t15 11.5t2.5 18.5t-10.5 14.5l-144 87q-9 5 -18.5 2.5t-15 -11t-3 -18.5t11.5 -15v0z" />
    <glyph glyph-name="browse" unicode="&#xe617;" 
d="M1012 395l-1 3q-220 327 -487 327q-60 0 -121.5 -18t-110 -46.5t-94 -64.5t-78 -69.5t-58.5 -64.5t-37.5 -47.5t-12.5 -19.5q-16 -29 0 -59l2 -4q240 -320 498 -320q105 0 208 52q60 32 90 57q7 7 7 18t-7.5 18.5t-18.5 7.5q-7 0 -14 -6q-61 -40 -94 -56
q-85 -40 -171 -40q-232 0 -456 297q-2 6 1 12q2 3 12 17.5t34.5 43.5t54 59.5t71.5 63.5t86 59t99.5 43t109.5 17q240 0 444 -304q0 -2 1 -3l-2 -4q-11 -16 -49 -63t-47 -57q-11 -12 -11 -20q0 -11 7.5 -18.5t18 -7.5t18.5 8q7 7 50 59.5t55 70.5l1 2q20 23 2 57v0zM393 372
q0 -47 36 -82t83 -35q48 0 83 34.5t35 82t-35 82t-83 34.5q-47 0 -83 -35t-36 -81v0zM580 372q0 -26 -20.5 -46t-47.5 -20t-47.5 20t-20.5 45.5t20.5 45.5t47.5 20t47.5 -20t20.5 -45v0z" />
    <glyph glyph-name="scanning" unicode="&#xe618;" 
d="M910 477q-9 0 -15 6t-6 15v259q0 13 -9.5 22.5t-22.5 9.5q-236 0 -258 -1q-8 0 -14.5 5t-8.5 13q-1 9 4 16t14 9q6 1 263 1q31 0 53 -22t22 -53v-259q0 -9 -6.5 -15t-15.5 -6v0zM85 477q-8 0 -14.5 6t-6.5 15v259q0 31 22 53t53 22q257 0 263 -1q9 -2 14 -9t4 -16
q-2 -8 -8.5 -13t-14.5 -5q-22 1 -258 1q-13 0 -22.5 -9.5t-9.5 -22.5v-259q0 -9 -6.5 -15t-15.5 -6v0zM857 -78q-257 0 -263 1q-9 2 -14 9t-4 16q2 8 8.5 13t14.5 5q22 -1 258 -1q13 0 22.5 9.5t9.5 22.5v259q0 9 6 15t15 6t15.5 -6t6.5 -15v-259q0 -31 -22 -53t-53 -22v0z
M139 -78q-31 0 -53 22t-22 53v259q0 9 6.5 15t15 6t15 -6t6.5 -15v-259q0 -13 9.5 -22.5t22.5 -9.5q236 0 258 1q8 0 14.5 -5t8.5 -13q1 -9 -4 -16t-14 -9q-6 -1 -263 -1v0zM984 362h-941q-9 0 -15.5 6.5t-6.5 15.5t6.5 15t15.5 6h941q8 0 14.5 -6t6.5 -15t-6.5 -15.5
t-14.5 -6.5v0z" />
    <glyph glyph-name="tuijian" unicode="&#xe67b;" 
d="M512 -212q-31 0 -54 13l-351 203q-23 13 -38.5 40t-15.5 53v406q0 26 15.5 53t38.5 40l351 203q23 13 54 13t54 -13l351 -203q23 -13 38.5 -40t15.5 -53v-406q0 -26 -15.5 -53t-38.5 -40l-351 -203q-23 -13 -54 -13zM512 771q-20 0 -34 -7l-351 -203q-13 -8 -23 -25.5
t-10 -32.5v-406q0 -15 10 -32.5t23 -25.5l351 -203q13 -7 34 -7t34 7l351 203q13 8 23 25.5t10 32.5v406q0 15 -10 32.5t-23 25.5l-351 203q-14 7 -34 7zM438 388q5 9 11.5 24t11 20.5t12.5 7t12.5 -3.5t5.5 -12q0 -8 -7 -24l-6 -12h241q7 -1 12 -5.5t5.5 -11.5t-5 -12.5
t-12.5 -5.5h-261q-9 -12 -19.5 -24.5t-53.5 -55.5v-171q0 -10 -5 -15.5t-11.5 -6t-12.5 5.5t-6 16v146q-18 -15 -29 -22.5t-18.5 -7.5t-14.5 8.5t3 17t41.5 29.5t82.5 80h-110q-8 0 -13 5t-5.5 12t5 12t13.5 6h133zM625 480h85q8 0 13 -5t5.5 -11t-5.5 -11t-13 -5h-85v-23
q0 -8 -5 -13.5t-12 -5.5t-12 5.5t-5 13.5v23h-165v-23q0 -9 -5 -15t-11.5 -6.5t-12 5.5t-5.5 16v23h-78q-8 0 -13.5 4.5t-6 10.5t5 11.5t14.5 5.5h78v28q0 9 6 15t13 5q6 0 10.5 -5.5t4.5 -14.5v-28h165v28q0 9 5 15t12 6q6 0 11.5 -6t5.5 -15v-28zM576 201h-161
q-6 0 -11 4.5t-5.5 11.5t4.5 11.5t12 4.5h135q-6 5 -9 7t-3.5 4t1 5.5t12 4t28.5 9t24.5 15t6 8.5t-10.5 2h-121q-7 0 -11.5 4t-4.5 9.5t4.5 9.5t11.5 4h160q15 0 22.5 -3.5t8.5 -12t-4 -15.5q-4 -6 -20 -18.5t-36.5 -19t-16.5 -9.5l3 -4h125q7 0 12.5 -4t6 -10.5t-4.5 -12
t-14 -5.5h-105q6 -8 10 -15t6.5 -21t2.5 -23q0 -27 -19.5 -49.5t-62.5 -21.5q-18 0 -33.5 3t-23.5 7t-12.5 12.5t1.5 15t14 5.5q3 0 15 -4t37 -4q49 -1 49.5 24t-3.5 35q-4 11 -20 36z" />
    <glyph glyph-name="pin" unicode="&#xe619;" horiz-adv-x="1025" 
d="M51 -128q-21 0 -36 15q-13 14 -14.5 32.5t9.5 33.5l213 289l-167 167q-12 12 -14 29.5t6 32.5l7.5 10t15 17t23 20t32 18t41 13.5t51 4t60.5 -7.5q2 -1 8 -1q13 -1 21 -2q24 -4 63 13.5t76 49.5q36 30 57 62.5t21 57.5v23v35.5t8 39.5t24 38q31 32 75 34t78 -26
q1 -1 3 -2v0q110 -108 279 -279q34 -33 34 -80.5t-34 -81.5q-16 -16 -38 -24t-40 -8h-35q-16 1 -23 1q-48 0 -104 -61q-37 -40 -59.5 -86.5t-20.5 -72.5q3 -25 4 -31q8 -30 8 -58.5t-4.5 -50t-14 -40.5t-18.5 -31t-19.5 -23t-16 -15t-10.5 -7q-15 -9 -32.5 -7t-30.5 14
l-178 179q-7 7 -7 18t7.5 18.5t18 7.5t17.5 -8l179 -178q3 2 6.5 5t11.5 10.5t14.5 17t13 24t9.5 30.5t2.5 38t-6.5 46q-1 5 -4 36q-4 39 22.5 95.5t69.5 103.5q71 77 142 77q8 0 24 -1q29 -1 46.5 2t29.5 15q19 19 19 45t-19 45q-261 261 -279 278q-18 15 -42.5 13.5
t-41.5 -18.5q-12 -12 -15 -29.5t-2 -45.5q1 -16 1 -25q0 -36 -26 -78.5t-71 -80.5q-42 -36 -91 -58.5t-89 -16.5q-7 1 -17 2q-6 0 -10 1q-3 0 -7 1q-31 6 -53.5 7t-42.5 -5.5t-32.5 -13t-23 -16.5t-14.5 -15t-7 -9l183 -182q16 -15 2 -33l-226 -306l239 174q8 7 18.5 5
t17 -10.5t4.5 -19t-10 -16.5l-239 -174q-13 -10 -30 -10z" />
    <glyph glyph-name="link" unicode="&#xe61a;" horiz-adv-x="1025" 
d="M331.5 564.5q-8.5 -8.5 -8.5 -20t9 -20.5l321 -321q9 -9 20.5 -9t20 8.5t8.5 20t-8 20.5l-322 322q-9 8 -20.5 8t-20 -8.5zM96 836l-36 -36q-60 -60 -60 -145t60 -145l127 -127q46 -46 110.5 -56.5t120.5 16.5q1 0 1 0.5t1 0.5h1v0q4 2 7 6q9 8 9 20t-9 20q-14 15 -33 6
v0q-42 -20 -90 -12t-82 43l-120 119q-45 45 -45 109t45 109l29 29q45 45 109 45t109 -45l119 -120q35 -35 43 -83.5t-13 -91.5v0v0v0q-7 -18 6 -31q9 -8 21 -8t20 8q4 4 6 8v0q28 57 18 122t-57 112l-127 127q-60 60 -145 60t-145 -60zM963 -31l-36 -36q-60 -60 -144.5 -60
t-144.5 60l-127 126q-47 47 -57.5 111.5t17.5 120.5v0.5t0.5 1t0.5 1.5v0q2 4 5 7q8 8 20 8t21 -8q14 -15 5 -33v0q-20 -42 -11.5 -90t42.5 -82l120 -120q45 -45 108.5 -45t108.5 45l29 29q45 45 45 108.5t-45 108.5l-119 120q-35 35 -84 43t-91 -13v0v0v0q-18 -7 -31 6
q-9 8 -9 20t9 21q4 3 7 5v0q57 29 122.5 18.5t112.5 -57.5l126 -127q60 -60 60 -144.5t-60 -144.5z" />
    <glyph glyph-name="subtract" unicode="&#xe61b;" 
d="M853 363q9 0 15.5 6t6.5 15t-6.5 15t-15.5 6h-682q-9 0 -15.5 -6t-6.5 -15t6.5 -15t15.5 -6h682z" />
    <glyph glyph-name="dollar" unicode="&#xe61c;" 
d="M819 296q-25 46 -67 74q-45 30 -97 44q-56 14 -131 17v327q40 -1 77 -11q44 -11 76 -36q31 -25 49 -63t18 -94q0 -11 7.5 -18.5t18 -7.5t18 7.5t7.5 18.5q0 67 -23 116t-63 81q-40 31 -95 46q-43 11 -90 13v48q0 10 -7.5 17.5t-18 7.5t-18 -7.5t-7.5 -17.5v-48
q-38 -2 -70 -10q-47 -11 -84.5 -33.5t-58.5 -51t-32.5 -57.5t-12.5 -58q-1 -18 0.5 -36t10.5 -44.5t25.5 -48.5t48.5 -42.5t75 -31.5q48 -12 98 -16v-375q-43 4 -80 15q-53 16 -91 49q-39 32 -61 79t-23 111q-1 10 -8.5 17.5t-18.5 6.5q-10 0 -17.5 -7.5t-7.5 -18.5
q2 -73 29 -131q27 -57 74 -96q46 -39 109 -59q46 -14 95 -17v-69q0 -11 7.5 -18t18.5 -7t18 7t7 18v68q46 1 97 10q58 11 107 38q49 28 81 74q34 48 34 120q0 54 -24 100zM473 433q-44 3 -85 14q-38 9 -64 26.5t-38.5 39t-17 42t-2.5 42.5q0 10 2 21t11.5 32t24 38.5t44 35
t67.5 26.5q26 7 58 8v-325zM767 105q-25 -36 -65 -59q-41 -23 -90 -32q-45 -8 -88 -9v374q67 -2 118 -15q43 -10 81 -36q32 -21 51 -56q18 -34 18 -76q0 -56 -25 -91z" />
    <glyph glyph-name="unie62d" unicode="&#xe6b8;" 
d="M1021 711l-93 -371q0 -7 -2 -12q-6 -12 -18 -18q-5 -2 -12 -2h-608l26 -128h550q13 0 22.5 -9.5t9.5 -22.5t-9.5 -22.5t-22.5 -9.5h-576q-13 0 -22.5 9.5t-9.5 22.5l-122 608h-102q-13 0 -22.5 9.5t-9.5 22.5t9.5 22.5t22.5 9.5h128q13 0 22.5 -9.5t9.5 -22.5l6 -32h794
q13 0 22.5 -9.5t9.5 -22.5q0 -7 -3 -13zM275 372h109v320h-173zM576 692h-160v-320h160v320zM768 692h-160v-320h160v320zM800 692v-320h72l81 320h-153zM352 52q40 0 68 -28t28 -68t-28 -68t-68 -28t-68 28t-28 68t28 68t68 28zM352 -76q13 0 22.5 9.5t9.5 22.5t-9.5 22.5
t-22.5 9.5t-22.5 -9.5t-9.5 -22.5t9.5 -22.5t22.5 -9.5zM800 52q40 0 68 -28t28 -68t-28 -68t-68 -28t-68 28t-28 68t28 68t68 28zM800 -76q13 0 22.5 9.5t9.5 22.5t-9.5 22.5t-22.5 9.5t-22.5 -9.5t-9.5 -22.5t9.5 -22.5t22.5 -9.5z" />
    <glyph glyph-name="shouji" unicode="&#xe690;" 
d="M512 -212q-102 0 -195 40.5t-160.5 109t-107.5 163.5t-40 199t40 199t107.5 163.5t160.5 109t195 40.5t195.5 -40.5t161 -109t107.5 -163.5t40 -199t-40 -199t-107.5 -163.5t-161 -109t-195.5 -40.5zM512.5 758q-91.5 0 -175 -36.5t-144 -97.5t-96 -146t-35.5 -178
t35.5 -178t96 -146t144 -97.5t175 -36.5t174.5 36.5t143.5 97.5t96.5 146t36 178t-36 178t-96.5 146t-143.5 97.5t-174.5 36.5zM676.5 17.5q-10.5 -10.5 -24.5 -16.5t-31 -6h-213q-17 0 -31 6t-24.5 16.5t-16.5 24.5t-6 31v447q0 17 6 31t16.5 25t24.5 17t31 6h213
q17 0 31 -6t24.5 -17t16.5 -25t6 -31v-447q0 -17 -6 -31t-16.5 -24.5zM492.5 29q9.5 -10 21.5 -10q14 0 23 10t9 23q0 15 -9.5 24.5t-22.5 9.5q-12 0 -21.5 -9.5t-9.5 -24.5q0 -13 9.5 -23zM559.5 552.5q-2.5 2.5 -6.5 2.5h-77q-3 0 -6 -2.5t-3 -8t3 -8.5t6 -3h77q3 0 6 3
t3 8.5t-2.5 8zM650 489h-272v-385h272v385z" />
    <glyph glyph-name="bianji" unicode="&#xe62f;" 
d="M247 -100h-146q-30 0 -51.5 21t-21.5 51v842q0 30 21.5 51.5t51.5 21.5h766q30 0 51 -21.5t21 -51.5v-210q0 -10 -6.5 -16.5t-16 -6.5t-16 6.5t-6.5 16.5v210q0 11 -8 19.5t-19 8.5h-766q-12 0 -20 -8t-8 -20v-842q0 -11 8 -19t20 -8h146q9 0 16 -6.5t7 -16t-7 -16
t-16 -6.5zM745 704h-570q-10 0 -16.5 6.5t-6.5 16t6.5 16t16.5 6.5h570q10 0 16.5 -6.5t6.5 -16t-6.5 -16t-16.5 -6.5zM438 466h-263q-10 0 -16.5 7t-6.5 16t6.5 15.5t16.5 6.5h263q9 0 15.5 -6.5t6.5 -16t-6.5 -16t-15.5 -6.5zM621 585h-446q-10 0 -16.5 6.5t-6.5 16
t6.5 16t16.5 6.5h446q9 0 15.5 -6.5t6.5 -16t-6.5 -16t-15.5 -6.5zM400 -114q-10 0 -17 7q-8 10 -5 22l41 146q1 6 6 10l409 409q10 11 25 11t26 -11l97 -98q11 -10 11 -25t-11 -26l-53 -53q-7 -7 -16 -7t-16 7l-66 66q-7 6 -7 15.5t7 16t16 6.5t16 -7l50 -50l32 32l-86 85
l-398 -398l-30 -107l116 22l231 232q7 7 18 16.5t37.5 24t52.5 16.5q9 0 16 -6t7.5 -15.5t-5.5 -16.5t-15 -7q-38 -3 -78 -43v0q0 -1 -1 -1l-236 -237q-5 -5 -12 -6l-158 -30h-4z" />
    <glyph glyph-name="selected" unicode="&#xe61d;" horiz-adv-x="1026" 
d="M705 555q0 -5 -5 -13l-183 -341q-14 -28 -49 -28q-28 0 -41 19l-100 115q-6 7 -6 17q0 11 8 19.5t19 8.5q5 0 13 -4l92 -49l200 273q11 10 24 10q11 -1 19.5 -8.5t8.5 -18.5zM512.5 853q34.5 0 57.5 -23l90 -90h126q34 0 58.5 -24t24.5 -59v-126l89 -89q24 -24 24 -59
t-24 -59l-89 -89v-126q0 -34 -24.5 -58.5t-58.5 -24.5h-126l-90 -90q-25 -21 -57 -21q-35 0 -58 23l-90 90h-126q-34 0 -58.5 24t-24.5 59v126l-89 89q-24 24 -24 59t24 59l89 89v126q0 34 24 57.5t59 23.5h126l90 90q23 23 57.5 23zM513 896q-55 0 -88 -36l-77 -77h-109
q-51 0 -88 -36.5t-37 -89.5v-109l-77 -77q-37 -36 -37 -88t37 -89l77 -76v-109q0 -52 36.5 -89t88.5 -37h109l77 -77q38 -34 88 -34q51 0 87 36l77 77h109q51 0 88 36.5t37 89.5v109l77 77q37 36 37 88t-37 89l-77 76v109q0 52 -36.5 89t-88.5 37h-109l-77 77q-34 34 -87 34
v0z" />
    <glyph glyph-name="person" unicode="&#xe61e;" horiz-adv-x="1025" 
d="M690 545.5q0 74.5 -52 126.5t-126 52t-126.5 -52t-52.5 -126.5t52.5 -127t126.5 -52.5t126 52.5t52 127zM376 545.5q0 56.5 40 96.5t96 40t95.5 -40t39.5 -96.5t-39.5 -96.5t-95.5 -40t-96 40t-40 96.5zM197 133v-15h638v15q0 52 -24 103.5t-65 90.5t-99.5 61.5
t-122.5 17.5q-5 0 -17 -4.5t-17 -5.5q-4 0 4 -6q10 -6 10 -10q5 0 8 -7t8 -7q111 0 187 -66t76 -158l15 15h-286l-279 -1l16 -16q0 56 40.5 106.5t96.5 85.5q5 3 6.5 11t-1.5 12q-9 12 -28 6q-61 -20 -113.5 -89.5t-52.5 -138.5zM512 894q-104 0 -198.5 -40.5t-163.5 -108.5
t-109.5 -163t-40.5 -199t40.5 -198.5t109.5 -163t163.5 -109t198.5 -40.5q179 0 319 111q8 7 9.5 17t-5 18t-17 9.5t-18.5 -5.5q-126 -100 -288 -100q-94 0 -179.5 36.5t-147.5 98.5t-98.5 147t-36.5 179t36.5 179.5t98.5 147.5t147.5 98.5t179.5 36.5t180 -36.5
t147.5 -98.5t98 -147.5t36.5 -179.5q0 -132 -69 -243q-6 -9 -3.5 -19t11.5 -15.5t19 -3t15 10.5q77 124 77 270q0 104 -40.5 199t-109 163t-163.5 108.5t-199 40.5z" />
    <glyph glyph-name="jifen" unicode="&#xe61f;" 
d="M512.5 390q142.5 0 259 28.5t182.5 78t66 110.5t-66 111t-182.5 78.5t-259 28.5t-259 -28.5t-182.5 -78.5t-66 -111t66 -110.5t182.5 -78t259 -28.5zM512.5 770q96.5 0 182.5 -14.5t144 -38t92 -52.5t34 -57.5t-34 -57.5t-92 -52.5t-144 -38t-182.5 -14.5t-182.5 14.5
t-144 38t-92 52.5t-34 57.5t34 57.5t92 52.5t144 38t182.5 14.5zM512.5 160q142.5 0 258.5 28t181.5 77.5t65.5 110.5q0 47 -43 90h-0.5h-0.5v0.5v0.5v0q-8 6 -17 6q-10 0 -17.5 -7t-7.5 -18q0 -10 8 -18v0q26 -26 26 -54q0 -29 -34 -58.5t-92 -53t-144.5 -38t-183 -14.5
t-183 14.5t-144.5 38t-92 53t-34 58.5q0 31 26 55h1l1 1v0v0q6 7 6 17t-7 17.5t-17.5 7.5t-17.5 -8h-1q-43 -42 -43 -90q0 -61 65.5 -110.5t181.5 -77.5t258.5 -28zM975 237l-1 1v0q-7 6 -17 6t-17.5 -7t-7.5 -18q0 -10 9 -18h-1q26 -26 26 -54q0 -29 -33.5 -58.5t-92 -53
t-145 -38t-183 -14.5t-183 14.5t-144.5 38t-92 53t-34 58.5q0 31 27 54v1h0.5t0.5 0.5v0.5v0q7 7 7 17t-7.5 17t-18 7t-17.5 -7v0q-44 -42 -44 -90q0 -61 66 -110.5t182 -77.5t258 -28t258 28t181.5 77.5t65.5 110.5q0 47 -43 90v0v0z" />
    <glyph glyph-name="remind" unicode="&#xe620;" 
d="M539 -127h-7q-28 1 -50 12.5t-35.5 28.5t-20.5 33t-10 31q-1 9 4 16t14 8.5t16 -3.5t9 -14q1 -3 2 -8t6.5 -16t13 -20t22 -16.5t31.5 -8.5q18 -1 32 6t22 16t14 21t7.5 17.5t2.5 9.5q1 9 8.5 14t16.5 3t14 -9.5t3 -16.5q-3 -15 -11 -31.5t-21 -33.5t-35 -28t-48 -11v0v0z
M57 74v0q1 -2 2 -3q4 -5 19 -5h873q13 0 16 3l-1 4v43l1 3q2 31 -66 93q-66 62 -108 198t-42 259q0 25 -11 46t-28 35t-40 25.5t-42.5 17.5t-39.5 10t-28.5 5t-12.5 1h-76h-1q-7 0 -17.5 -2t-37 -7.5t-49 -16t-46 -25t-37 -38t-13.5 -51.5q0 -73 -14.5 -157.5t-49 -170
t-80.5 -129.5q-69 -64 -71 -96v-1v-41v0v0zM78 23q-35 0 -52 20q-14 15 -12 35v31q-8 49 84 135q58 54 94.5 181t36.5 244q0 33 13 61t32.5 46t46.5 32.5t50 22.5t48 13.5t35 6.5t17 2h9v25q0 7 5 12t12 5h22q7 0 12 -5t5 -12v-25h15q7 -1 17.5 -2t35.5 -6.5t48 -13.5
t50 -22.5t46.5 -32.5t33 -46t13.5 -61q0 -115 38.5 -243t96.5 -182q93 -85 79 -136v-29q4 -20 -7 -35q-15 -21 -51 -21h-873z" />
    <glyph glyph-name="kulian" unicode="&#xe689;" 
d="M885 46v0v1v-1zM817 604q-62 62 -142.5 94.5t-162.5 32.5t-162.5 -32.5t-142.5 -94.5q-83 -83 -112.5 -194t0 -222.5t112 -194t194 -112t223 0t193.5 111.5q62 62 94.5 143t32.5 163t-32.5 162.5t-94.5 142.5zM774 37q-71 -71 -166.5 -96t-191 0t-166.5 96t-96 166.5
t0 190.5t96 166t166.5 96.5t191 0t166.5 -96.5t96 -166t0 -190.5t-96 -166.5zM377 344q19 0 33 14t14 33t-14 32.5t-33 13.5t-32.5 -13.5t-13.5 -32.5t13.5 -33t32.5 -14zM645 344q19 0 33 14t14 33t-14 32.5t-33 13.5t-32.5 -13.5t-13.5 -32.5t13.5 -33t32.5 -14zM647 104
l-3 1q-63 28 -133 28q-72 0 -134 -28l-3 -1q-4 -1 -6 -1q-12 0 -20 8t-8 19q0 12 9 20v2l7 3q75 34 156 34q80 0 156 -34q14 -8 14 -24q0 -14 -10.5 -22.5t-24.5 -4.5v0z" />
    <glyph glyph-name="kefu" unicode="&#xe66b;" 
d="M369 356q0 -5 1 -14t9 -31.5t21.5 -39.5t43 -31t69.5 -14t69.5 13.5t43 32.5t21.5 38t8 33l1 13q-5 -5 -15.5 -13t-42 -22.5t-64 -19.5t-78 7.5t-87.5 47.5zM776 409q0 109 -77 186t-186 77t-186 -77t-77 -186q0 -106 74 -183q33 -30 68 -48q23 -12 45 -21q37 -11 76 -11
q109 0 186 77t77 186zM512.5 185q-92.5 0 -158 65.5t-65.5 158.5t65.5 158.5t158 65.5t158 -65.5t65.5 -158.5t-65.5 -158.5t-158 -65.5zM848 492q-28 114 -121.5 188t-213.5 74t-213.5 -74t-121.5 -188l-10 -2.5t-22 -9t-28 -18t-21 -31.5t-8 -47t12.5 -46t25.5 -29.5
t30 -15.5t24 -7t10 -1q4 -1 7 -0.5t12 2.5t10 2q-23 58 -23 120q0 131 92.5 223.5t223.5 92.5t223.5 -92.5t92.5 -223.5q0 -103 -60 -185t-155 -114q-4 -2 -8 -1.5t-6 1.5h-3q-21 4 -48 -3q-19 -6 -17.5 -30t21.5 -27q47 -8 58 14q9 17 13 19q72 24 127.5 77.5t83.5 124.5
q3 0 10 1.5t24 8t30 16.5t24 30t12 45q2 73 -69 100z" />
    <glyph glyph-name="map" unicode="&#xe621;" 
d="M452 -98q20 -23 49.5 -23t49.5 23q5 5 15 16q19 21 39 45q64 76 117 150q58 81 97 152q77 137 77 229q0 109 -53 201.5t-143.5 146.5t-198 54t-198.5 -54t-143.5 -146.5t-52.5 -201.5q0 -92 77 -230q39 -70 97 -151q53 -74 117 -150q20 -24 39 -45q10 -11 15 -17v1z
M487 -65q-5 5 -14 16q-19 20 -38 43q-63 75 -116 148q-56 78 -94 146q-70 127 -70 206q0 96 46 177.5t126 128.5t174.5 47t174 -47t126 -128.5t46.5 -177.5q0 -79 -70 -205q-38 -68 -94 -147q-53 -73 -116 -147q-19 -24 -38 -44q-9 -10 -14 -16q-6 -7 -14.5 -7.5t-14.5 6.5
v1zM715 429q14 37 14 77q0 91 -63.5 155t-152.5 64t-152 -64t-63 -155t63 -155.5t152 -64.5q54 0 101 26q9 5 12 14.5t-1.5 18.5t-14 12t-18.5 -2q-37 -20 -79 -20q-69 0 -118 50t-49 121t49 121t118.5 50t118.5 -50t49 -121q0 -31 -11 -60q-3 -9 1 -18.5t13 -13t18 1
t13 13.5v0z" />
    <glyph glyph-name="zhanghu01" unicode="&#xe688;" 
d="M811 768h-43v85h-85v-85h-342v85h-85v-85h-43q-35 0 -60 -25t-25 -60v-598q0 -35 25 -60t60 -25h598q35 0 60 25t25 60v598q0 35 -25 60t-60 25zM512 640q53 0 90.5 -37.5t37.5 -90.5t-37.5 -90.5t-90.5 -37.5t-90.5 37.5t-37.5 90.5t37.5 90.5t90.5 37.5zM768 128h-512
v43q0 30 27.5 56t68.5 42t83.5 25t76.5 9t76.5 -9t83.5 -25t68.5 -42t27.5 -56v-43z" />
    <glyph glyph-name="qianbao" unicode="&#xe65b;" 
d="M960 -30v0q0 -44 -31.5 -75t-75.5 -31v0h-682v0q-44 0 -75.5 31t-31.5 75v640q0 36 25 61t60 25v0h345l76 37q24 9 36 -2l21 -35h162q36 0 61 -25t25 -61v-64v0q35 0 60 -25t25 -60v-491v0zM149 653v0q-16 0 -29 -22t-13 -42q0 -18 12.5 -30.5t29.5 -12.5h31h-21h4v0.5
t1 0.5l255 106h-270v0zM599 649l-23 41v0l-76 -37v0l-235 -107h385l-51 103v0zM832 610q0 18 -12.5 30.5t-30.5 12.5h-147l53 -107h137v0v64v0zM875 504h-726v0q-22 0 -42 11v-545q0 -26 18.5 -45t45.5 -19h682q27 0 45.5 19t18.5 45v150h-85q-35 0 -60 25t-25 60t25 60
t60 25h85v171q0 18 -12.5 30.5t-29.5 12.5v0zM917 162v86h-85q-18 0 -30.5 -12.5t-12.5 -30.5t12.5 -30.5t30.5 -12.5h85v0v0zM832 226h43v-42h-43v42v0zM832 226z" />
    <glyph glyph-name="skip" unicode="&#xe622;" 
d="M1011 409q0 15 -11 26l-394 340q-11 9 -24 9q-14 0 -24.5 -10.5t-10.5 -25.5v-150q-226 -37 -372.5 -189t-161.5 -366q1 -9 7.5 -15t15.5 -6q7 0 13 4v0q73 51 132 83q100 55 258 84v0q12 0 19.5 8t7.5 19.5t-7.5 19.5t-19.5 8q-5 0 -9 -2q-216 -42 -362 -147
q100 371 512 448v0q11 2 18 10.5t7 19.5v1v0v115l332 -284l-329 -281h-2v138v0q-1 12 -9.5 20.5t-20.5 8.5t-20.5 -9t-8.5 -21v0v0v-57v-75v-64q0 -15 10.5 -25.5t24.5 -10.5q12 0 23 8l394 341v0q12 10 12 27z" />
    <glyph glyph-name="dayinji" unicode="&#xe7d0;" 
d="M212 234h50v50h-50v100h601v-100h-50v-50v0q9 0 24.5 -0.5t22.5 -0.5t18 1.5t15.5 4.5t10 8.5t7.5 14.5t2 22v201q0 35 -7 42.5t-43 7.5h-601q-36 0 -43 -7.5t-7 -42.5v-201q0 -50 50 -50zM963 535v-301q0 -21 -4 -37.5t-9.5 -27t-17 -18t-20 -11t-24.5 -5.5t-24 -2
t-26.5 0.5t-24.5 0.5h-50l3 -200h-507l3 200h-100q-42 0 -71 23t-29 77v301q0 58 21 79t79 21h100v200h501v-200h100q58 0 79 -21t21 -79zM713 -16v300h-401v-300h401zM663 635v100h-301v-100h301z" />
    <glyph glyph-name="anquan1" unicode="&#xe691;" 
d="M922 752q-19 17 -45 17h-5h-28q-74 0 -132 14q-30 7 -64 28t-65.5 46.5t-34.5 27.5q-17 11 -37.5 11t-36.5 -11l-5.5 -5t-14 -12.5t-20 -17.5t-26 -20t-29.5 -19.5t-32.5 -17t-33.5 -10.5q-58 -14 -133 -14h-28h-5q-26 0 -45 -17q-21 -19 -21 -47v-160q0 -95 14 -179
t36.5 -145t54.5 -113t63.5 -86.5t68.5 -62t65 -42.5t56.5 -26t40 -14t19.5 -4q7 -1 11 -1q7 0 12 1q8 1 19.5 4t40.5 14t57 26t65.5 42.5t69 62t64 86.5t55 113t36.5 145t14 179v160q0 28 -21 47v0zM774 523l-278 -269q-3 -5 -7 -8q-12 -12 -29 -12q-18 0 -30 12q-3 3 -6 8
l-149 144q-12 11 -12 27.5t12 28t29 11.5t28 -12l128 -123l257 248q11 12 28 12t29 -11.5t12 -28t-12 -27.5v0zM774 523z" />
    <glyph glyph-name="zhaobiao1" unicode="&#xe952;" 
d="M512 754h311v-39h-311v39zM201 520h622v-39h-622v39zM201 754h233v-195h-233v195zM512 598h311v-39h-311v39zM84 832v-662h389v39h-350v584h778v-584h-39v-39h78v662h-856zM724.5 144.5q12.5 21.5 38 22t25.5 25.5t22 38t9.5 35t0 44t-9.5 34.5t-22 38t-25.5 25.5
t-38.5 22t-35 9.5t-43.5 0t-34.5 -9.5t-38.5 -22t-25.5 -25.5t-21.5 -38t-9.5 -34.5t-0.5 -44t9.5 -35t22 -38t25.5 -25.5t38.5 -22t34.5 -9.5t44 0t35 9.5zM550 122q-10 0 -16.5 2.5t-8.5 4.5l-1 2l-90 -150l72 7l40 -52q5 10 14 25t27 47.5t30 53.5l12 21q-14 0 -23 6.5
t-12.5 13.5t-14.5 13t-29 6zM746 100q-8 -7 -17.5 -10t-15.5 -3h-6l100 -151l25 56l69 -8l-89 147q-23 -2 -36 -6t-16 -7.5t-7 -9t-7 -8.5zM512 676h311v-39h-311v39z" />
    <glyph glyph-name="rejectedorder" unicode="&#xe623;" 
d="M797 -111q-82 0 -139.5 57.5t-57.5 139.5t57.5 139t139 57t139 -57.5t57.5 -138.5q-1 -82 -58.5 -139.5t-137.5 -57.5zM797 238q-64 0 -109 -45t-45 -109t45 -109t108.5 -45t108.5 45t45 109q-1 64 -46 109t-107 45zM885 60q9 0 16 7t7 17q0 9 -6.5 16.5t-16.5 7.5h-175
q-10 0 -17 -7t-7 -17q0 -9 7 -16.5t17 -7.5h175v0zM761 545h-559q-10 0 -17 -7t-7 -17t7 -16.5t17 -6.5h559q9 0 16 6.5t7 16.5t-7 17t-16 7zM910 748q0 57 -40.5 97.5t-96.5 40.5h-719h-23v-24v-836q0 -58 39.5 -98.5t96.5 -40.5h418v0q10 1 16 8t6 17t-6.5 17t-15.5 8v0
h-420q-36 0 -61.5 26.5t-25.5 63.5v810h695q36 0 61.5 -27t25.5 -64v-406v0v0q0 -10 7.5 -17.5t17.5 -7.5t17 7.5t7 17.5v0v0v408h1zM763 691h-559q-10 0 -17 -7t-7 -16.5t7 -16.5t17 -7h559q9 0 16 7t7 17q2 10 -5 16.5t-18 6.5z" />
    <glyph glyph-name="touxiang" unicode="&#xe643;" 
d="M352 331q-109 -41 -184 -131q-76 -91 -97 -207q-1 -7 2.5 -12t10.5 -6h2q13 0 15 12q20 107 90 192t172 124q6 2 8.5 8t0.5 11.5t-8 8.5t-12 0zM953 -8q-14 77 -53 145t-99 118t-133 78q-75 28 -156 28q-90 0 -154 64t-64 154t64 154t154 64t154 -64t64 -154
q0 -94 -68 -158q-11 -11 -0.5 -22t21.5 -1q37 35 57 81q21 47 21 100q0 103 -73 175.5t-176 72.5t-176 -72.5t-73 -175.5t73 -176t176 -73q152 0 268 -97t143 -246q2 -13 15 -13q1 0 2 1q7 1 10.5 6t2.5 11z" />
    <glyph glyph-name="fenlei" unicode="&#xe644;" 
d="M64 768h895v-64h-895v64zM64 448h895v-64h-895v64zM64 129h895v-64h-895v64z" />
    <glyph glyph-name="danbao" unicode="&#xe6bb;" 
d="M512 -12q-107 0 -198.5 53t-144.5 144.5t-53 199t53 198.5t144.5 144.5t198.5 53.5t198.5 -53.5t144.5 -144.5t53 -198.5t-53 -199t-144.5 -144.5t-198.5 -53zM512 831q-91 0 -173.5 -35.5t-142.5 -95t-95.5 -142.5t-35.5 -173.5t35.5 -173.5t95.5 -143t142.5 -95.5
t173.5 -35.5t173.5 35.5t142.5 95.5t95.5 143t35.5 173.5t-35.5 173.5t-95.5 142.5t-142.5 95t-173.5 35.5zM541 680v17q0 11 -8.5 17t-20.5 6t-20 -6t-8 -17v-17q-118 -11 -204.5 -96t-102.5 -206q32 35 67.5 44t55.5 5q38 -6 60 -18t47 -40q17 25 46 42t59 17
q27 0 55.5 -17.5t44.5 -43.5q17 22 35 35.5t36.5 18t25.5 5.5t21 1q65 -4 117 -47q-16 121 -102.5 205.5t-203.5 94.5zM483 352v-124q0 -8 -2 -16.5t-12.5 -19.5t-29.5 -11q-7 0 -15 2t-17.5 13t-10.5 30v17q0 12 -8 20t-20 8t-20 -8t-8 -20v-17q0 -37 25.5 -69.5t74 -32.5
t74 32.5t25.5 69.5v125q0 12 -8.5 20.5t-20 8.5t-19.5 -8t-8 -20z" />
    <glyph glyph-name="laba" unicode="&#xe6ac;" 
d="M564 782q-23 11 -43 -5l-229 -191h-183q-17 0 -28.5 -11.5t-11.5 -27.5l-1 -320q0 -16 11.5 -28t28.5 -12h185l228 -190q11 -9 26 -9q9 0 17 4q23 10 23 36v718q0 25 -23 36v0zM719 583q-15 7 -30.5 1.5t-22.5 -20.5t-1.5 -30.5t19.5 -22.5q4 -2 8 -5t15 -13t19 -22.5
t14.5 -34t6.5 -46.5q0 -27 -6.5 -49.5t-14 -36t-17 -24t-13.5 -13.5t-7 -4q-15 -7 -20 -23t2 -31q11 -22 36 -22q9 0 17 4q6 3 13 8t24.5 21.5t30.5 37t23.5 56t10.5 76.5q0 39 -11 73.5t-25 54.5t-32 36.5t-26 21t-13 7.5v0zM843 700q-14 9 -30 5.5t-25 -17.5t-5.5 -30
t17.5 -25q5 -4 13 -10.5t26 -28t31.5 -47t24.5 -68.5t11 -92t-10.5 -92t-23.5 -69t-30.5 -47.5t-25 -28t-12.5 -9.5q-14 -9 -17 -25.5t6 -30.5q12 -17 33 -17q12 0 22 6q7 5 17.5 13.5t33.5 36t40.5 60t32 87.5t14.5 116t-15 116t-33.5 87.5t-42.5 60.5t-34.5 36t-17.5 13v0
zM843 700z" />
    <glyph glyph-name="kttx" unicode="&#xe69c;" 
d="M168 -63q-43 0 -72 34.5t-29 91.5v709q0 23 17.5 39.5t42.5 16.5h769q25 0 42.5 -15.5t17.5 -40.5v-709q0 -57 -29 -91.5t-73 -34.5h-686zM133 44q0 -17 10.5 -29t24.5 -12h686q15 0 25.5 12t10.5 29v77h-757v-77zM890 189v573h-757v-573h757zM512.5 382q-72.5 0 -129 39
t-87.5 101t-40 138q-1 15 9 26.5t25 11.5q13 0 22.5 -8.5t11.5 -21.5q10 -94 58 -155.5t130 -61.5t130 61.5t58 155.5q1 13 11 21.5t23 8.5q15 0 25 -11.5t9 -26.5q-9 -77 -40 -138.5t-87 -100.5t-128.5 -39z" />
    <glyph glyph-name="mima-copy" unicode="&#xe666;" 
d="M822 513h-80q0 97 -65 163t-160 66t-160 -66t-65 -163h-81q0 78 40.5 149t112 115.5t153 44.5t153 -44.5t112 -115.5t40.5 -149zM870 381q0 33 -23.5 57t-57.5 24h-538q-33 0 -56.5 -24t-23.5 -57v-382q0 -34 23.5 -57.5t56.5 -23.5h538q34 0 57.5 23.5t23.5 57.5v382z
M585 82q0 -25 -17.5 -42.5t-42.5 -17.5h-9q-25 0 -42.5 17.5t-17.5 42.5v164q0 25 17.5 42.5t42.5 17.5h9q25 0 42.5 -17.5t17.5 -42.5v-164z" />
    <glyph glyph-name="diamond" unicode="&#xe624;" 
d="M998 527l-200 275q-7 11 -19 11h-536q-15 -2 -23 -17q-12 -19 -59 -90t-88 -132.5l-41 -61.5l-11 -17l448 -523q7 -6 11 -8q7 -5 20.5 -6t26.5 6q2 1 5 4t6 4l409 421q8 6 8 16.5t-8 17.5q-6 8 -15.5 8t-16.5 -8l-354 -365l154 422h251q20 0 24 5l2 2q10 4 11.5 14.5
t-5.5 21.5zM783 764l-96 -226h-346l-85 226h527zM222 715l72 -180h-192zM92 489h215l139 -416zM503 45l-147 444h307zM736 535l75 167l119 -169h-194v2z" />
    <glyph glyph-name="diamond2" unicode="&#xe625;" 
d="M1003 512l-190 265l-90 -265h280zM363 469l149 -433l147 433h-296zM678 512l94 299h-520l96 -299h330zM535 -38l3 -3l463 510h-293zM209 779l-188 -267h280zM21 469l465 -514v9l-170 505h-295z" />
    <glyph glyph-name="fenlei2" unicode="&#xe645;" 
d="M47 756h930v-46h-930v46zM47 407h930v-46h-930v46zM47 58h930v-46h-930v46z" />
    <glyph glyph-name="bianji1" unicode="&#xe652;" 
d="M250 58q28 0 57 19h7l-180 179v-6q-19 -29 -19 -58l-64 -198zM890 774l-58 58q-24 24 -57.5 24t-57.5 -24l-58 -58l173 -172l58 57q24 24 24 57.5t-24 57.5v0v0v0zM774 544l-172 173l-404 -403l173 -173zM0 -64h1024v-64h-1024v64z" />
    <glyph glyph-name="ing" unicode="&#xe653;" 
d="M768 384h-256v269q0 13 -0.5 19.5t-3.5 15t-10 12.5t-18 4t-18 -4t-10 -12.5t-3.5 -15t-0.5 -19.5v-288q0 -20 14 -32.5t37 -12.5h269q64 0 64 32q0 19 -14.5 25.5t-49.5 6.5v0zM550 -90l-6 45q67 5 131 32t112 71l32 -39q-129 -99 -269 -109v0zM429 -83
q-162 30 -256 134l32 39q100 -100 230 -128zM902 102l-38 26q83 114 83 250q0 44 -6 70l45 6v-70q9 -148 -84 -282v0zM96 147q-64 101 -64 237v51l45 -6v-45q0 -105 51 -218zM109 531l-45 19q56 141 186 231l25 -45q-56 -28 -101.5 -84.5t-64.5 -120.5v0zM902 557
q-61 133 -172 198l25 45q130 -80 199 -218zM371 787l-19 45q144 58 288 6l-6 -44q-65 23 -131.5 20.5t-131.5 -27.5v0z" />
    <glyph glyph-name="liaotian" unicode="&#xe654;" 
d="M198 450q0 29 18 46.5t46.5 17.5t46 -17.5t17.5 -46.5t-17.5 -46.5t-46 -17.5t-46.5 17.5t-18 46.5v0zM454 450q0 29 17.5 46.5t46.5 17.5t46.5 -17.5t17.5 -46.5t-17.5 -46.5t-46.5 -17.5t-46.5 17.5t-17.5 46.5v0zM902 1h-70v64h76q24 0 38 18t14 47v633q0 30 -14 49.5
t-38 19.5h-786q-24 0 -41 -20t-17 -49v-633q0 -28 16.5 -46.5t41.5 -18.5h492q7 0 19 -12l115 -128q10 -10 10 -22.5t-10 -22.5q-9 -9 -22 -8t-22 11l-103 118h-473q-53 0 -90.5 39t-37.5 97v620q0 57 37.5 98t90.5 41h767q53 0 91 -41t38 -98v-620q0 -55 -35.5 -95.5
t-86.5 -40.5v0v0zM710 450q0 29 17.5 46.5t46.5 17.5t46.5 -17.5t17.5 -46.5t-17.5 -46.5t-46.5 -17.5t-46.5 17.5t-17.5 46.5v0z" />
    <glyph glyph-name="del2" unicode="&#xe655;" 
d="M960 576h-384v320h64v-256h320v-64zM339 218l301 300l45 -44l-301 -301zM339 474l45 44l301 -300l-45 -45zM870 -128h-716q-38 0 -64 26t-26 64v844q0 38 26 64t64 26h486l320 -250v-684q0 -38 -26 -64t-64 -26zM154 832q-26 0 -26 -26v-844q0 -11 7.5 -18.5t18.5 -7.5
h716q26 0 26 26v659l-275 211h-467z" />
    <glyph glyph-name="star" unicode="&#xe656;" horiz-adv-x="1031" 
d="M186 -128l57 371l-243 275l339 39l173 339l173 -339l345 -39l-256 -262l58 -384l-320 179zM512 115l250 -141l-45 295l192 198l-263 32l-134 269l-134 -262l-263 -32l192 -212l-45 -281z" />
    <glyph glyph-name="renqun" unicode="&#xe657;" 
d="M512 459q36 16 57.5 49t21.5 73q0 55 -39 94.5t-94.5 39.5t-94.5 -39.5t-39 -94.5q0 -40 21.5 -73t57.5 -49q30 8 55 8t54 -8zM368 581q0 37 26 63.5t63.5 26.5t63.5 -26.5t26 -63.5t-26 -63.5t-63.5 -26.5t-63.5 26.5t-26 63.5zM498 267h-217q9 66 59 111t118 45
q69 0 120 -48q20 15 29 19l9 5q-43 44 -104 60q-26 -12 -54.5 -12t-54.5 12q-73 -19 -120 -78t-47 -136q0 -9 6.5 -15.5t15.5 -6.5l212 -4q26 43 28 48zM513 459q-15 16 -52 16q-44 0 -58 -16q27 -14 55 -14t55 14zM770 183q-24 11 -48.5 2.5t-36 -32t-3 -48t32.5 -36.5
q5 -2 17 -4q21 -3 39.5 6t27.5 27q8 19 5 38t-16 33q-9 9 -18 14zM942 102q31 7 51 15q1 23 -2 42v2q0 1 -1 1q-20 5 -52 10q-4 17 -11 34q23 23 37 39q-11 20 -25 38q-22 -7 -51 -18q-11 12 -27 24q9 30 13 52q-20 12 -41 20q-3 -4 -5 -5q-14 -16 -29 -35q-2 0 -6 1t-5 1
q-18 4 -24 5q-9 32 -15 51q-22 1 -42 -2q-2 0 -4 -1q-6 -24 -9 -52q-15 -3 -32 -10q-1 -1 -2 -1h-1q-23 23 -38 36q-3 -1 -23 -14q-2 -2 -7.5 -5t-8.5 -5q7 -21 19 -50q-13 -13 -24 -26h-5q-29 8 -47 11q-2 -2 -3.5 -6t-2.5 -5q-11 -20 -15 -30q8 -7 18 -16q11 -8 23 -18
q-6 -19 -8 -36q-29 -7 -51 -14q0 -21 2 -42q0 -1 0.5 -2t0.5 -2q19 -5 52 -9q1 -4 3.5 -10.5t2.5 -7.5l2 -7t3 -10q-11 -12 -23 -24q-8 -8 -13 -14q10 -21 25 -39q20 6 50 19q11 -13 27 -25q-9 -30 -13 -51q19 -12 41 -21q14 14 34 41q17 -6 36 -8q7 -30 15 -51q21 -1 42 2
q2 0 3 1q5 21 10 52q17 4 34 11q22 -22 39 -36q20 10 38 25q-6 21 -18 50q12 11 24 27q30 -9 52 -13q12 20 20 41q-16 15 -41 34q6 17 8 36zM759 -20q-70 -9 -121 41q-19 18 -30 41t-14 45q-6 51 22 96q23 36 60 54q24 11 45 14q33 4 67 -8q23 -8 40 -21q49 -37 57 -97
t-29 -108.5t-97 -56.5v0zM376 128h-222q-37 0 -63.5 26.5t-26.5 63.5v524q0 38 26.5 64t63.5 26h524q37 0 63.5 -26t26.5 -64v-236q0 -1 12 -2.5t28.5 -4t23.5 -4.5v273q0 53 -37.5 90.5t-90.5 37.5h-576q-53 0 -90.5 -37.5t-37.5 -90.5v-576q0 -53 37.5 -90.5t90.5 -37.5
h258q-2 7 -4 23.5t-3.5 28.5t-2.5 12zM330 501h-13t-31 -4t-44 -11.5t-46.5 -25.5t-44 -42.5t-31 -66.5t-12.5 -94h44q2 1 0 10.5t2 26.5t8 36.5t17.5 40.5t31 39t49 30.5t70.5 16.5v44zM330 704q-5 0 -13 -0.5t-28.5 -7t-35.5 -17.5t-28 -35t-13 -57q0 -4 1 -11.5t7 -27
t17 -34.5t35.5 -28.5t57.5 -15.5v40q-3 0 -7.5 0.5t-17 5.5t-22 12.5t-18 23t-10.5 35.5q0 3 0.5 8t4 18t10.5 23.5t22.5 20t37.5 11.5v36z" />
    <glyph glyph-name="shenhezhong" unicode="&#xe67c;" 
d="M512 605q54 0 101 -24t77 -66l29 -7q-32 53 -87 84.5t-120 31.5q-62 0 -117 -30l28 -7q43 18 89 18v0zM658 618l15 -13l5 19l17 10l-17 10l-5 19l-15 -13l-21 2l8 -18l-8 -18l21 2v0zM389 660l-16 11l-3 -20l-17 -12l18 -8l6 -19l14 14l20 1l-9 17l7 19l-20 -3v0z
M538 687l-12 15l-9 -17l-19 -7l14 -13v-20l18 10l19 -6l-3 19l12 16l-20 3v0zM754 566l-17 11l-2 -19l-16 -12l19 -9l7 -18l13 14h20l-10 17l6 19l-20 -3v0zM972 420l-840 225q-15 4 -29 -4t-18 -24l-60 -223q-4 -16 4 -30t23 -18l840 -225q15 -4 29 4t18 24l60 224
q4 15 -4 29t-23 18v0zM978 368l-55 -205q-3 -11 -13.5 -17t-22.5 -3l-820 219q-12 4 -18 14t-3 22l55 205q3 12 13.5 18t22.5 3l820 -220q12 -3 18 -13.5t3 -22.5v0zM512 731q119 0 212.5 -73t123.5 -185l21 -6q-29 123 -128.5 203t-228.5 80q-78 0 -147 -30.5t-120 -84.5
l21 -6q48 48 111.5 75t134.5 27v0zM601 179q-43 -18 -89 -18q-54 0 -101 24t-77 66l-29 8q32 -54 87 -85.5t120 -31.5q62 0 117 30l-28 7v0zM393 139l-15 13l-5 -19l-17 -10l17 -10l5 -19l15 13l21 -2l-8 18l8 18l-21 -2v0zM512 80l12 -15l9 17l19 7l-14 13v20l-18 -10
l-19 6l3 -19l-12 -17l20 -2v0zM268 201l16 -12l3 19l17 10l-18 10l-5 19l-15 -12l-20 1l9 -18l-7 -18l20 1v0zM512 36q-119 0 -212.5 72.5t-123.5 184.5l-21 6q29 -123 128.5 -203t228.5 -80q78 0 147 30.5t120 85.5l-21 5q-48 -48 -111.5 -74.5t-134.5 -26.5v0zM652 106
l15 -11l4 20l16 12l-17 8l-6 19l-15 -14l-19 -1l8 -17l-6 -19l20 3v0zM652 106zM367 452l-26 -100l-28 7l2 9l-32 8l-10 -40l-29 7l11 40l-30 8l-3 -13l-28 8l27 104l58 -15l4 17l4 -1q11 -4 18 -6q8 -2 8 -4q1 -2 -2 -5q-2 -4 -2 -5l-1 -4zM214 542l79 -20q0 14 -2 18l1 2
q18 -3 34 -7q-3 -19 -2 -21l74 -20l-11 -44l-29 8l5 20l-128 33l-5 -19l-27 7zM233 427l-3 -14l31 -8l4 13zM239 447l31 -8l4 13l-31 9zM292 411l-3 -14l31 -8l4 14zM301 445l-3 -13l30 -8l4 13zM393 376q28 27 45 59l-23 6l6 23l26 -7l12 44l3 -1q17 -4 19 -6q3 0 3 -2
q0 -1 -1 -4q-2 -4 -4 -10l-7 -27l21 -6l4 16l50 -13v26l31 -4q-1 -11 -3 -30l46 -12l-5 -22l-58 15l-21 -18q-8 -7 -12 -10q13 -3 20 -3q8 5 22 18q2 1 3 3q24 -18 24 -19q-2 -1 -3 -2q-18 -15 -26 -20q-45 -33 -91 -46q-6 11 -17 23q33 7 69 27q-30 4 -39 3q-1 4 3 26
q-1 1 8 1q7 2 11 7l18 18l-35 9l-4 -16l-22 6l-6 -22l15 4q4 -13 11 -39l-24 -7q-1 1 -2 4q-1 6 -5 19l-24 -91l-24 7l19 74q-12 -15 -19 -21q-3 9 -14 20zM445 312q80 5 128 57q22 -22 22 -24q0 -1 -6 -4q-3 -3 -10 -8q-4 -3 -12 -8q-8 -6 -11 -8q6 -13 28 -41
q-15 -6 -28 -15q-2 2 -6 11q-10 17 -19 32q-33 -12 -69 -18q-7 16 -17 26zM625 305l26 100l70 -18l11 42q25 -7 29 -9l6 -1q0 -2 -2 -4q-4 -6 -7 -15l-5 -22l74 -19l-25 -98l-32 9l3 12l-42 12l-19 -73l-31 8l19 73l-42 11l-4 -16zM674 373l-10 -37l42 -11l10 37zM780 306
l9 37l-42 11l-10 -37z" />
    <glyph glyph-name="shuiwudengjizheng" unicode="&#xe69d;" 
d="M586 462h295v-51h-295v51v0v0zM586 462zM676 87l-3 3h-579q-17 0 -29 11.5t-12 29.5v535q0 18 12 30.5t29 12.5h825q17 0 29 -11.5t12 -28.5v-322l3 -2q21 -13 35 -31l11 -12v377q0 32 -23.5 55.5t-56.5 23.5h-848q-33 0 -56 -23.5t-23 -55.5v-561q0 -33 23 -56t56 -23
h628l-8 10q-10 13 -25 38v0v0zM676 87zM586 350h87v-51h-87v51v0v0zM586 350zM586 572h295v-51h-295v51v0v0zM586 572zM855 342q-71 0 -120 -48.5t-49 -119.5q0 -69 50 -118.5t119 -49.5q71 0 120 48.5t49 119.5q0 70 -49.5 119t-119.5 49v0v0zM852 72q-5 -6 -15 -6t-18 6
l-72 71q-5 6 -5 15.5t5.5 15.5t15.5 6t18 -6l56 -56l110 107q6 6 16 6t17 -6q6 -6 6 -15.5t-6 -15.5l-128 -122v0v0zM852 72zM245 534v-42h23q18 -2 18 -23q-2 -21 -20 -21h-21v-12q7 -11 13 -19q41 -47 38 -55q-2 -23 -22 -23q-11 -2 -22 15q-5 6 -7 9v-143q-1 -17 -23 -19
q-21 2 -21 19v135q-21 -52 -42 -47q-34 7 -10 46l2 1q26 36 45 93h-34q-16 0 -18 21q2 21 20 23h37v37q-13 -2 -26 -2q-22 -1 -26 22q2 21 25 22q29 0 52 4q22 1 39 6q21 3 27 -16q2 -21 -18 -26q-14 -5 -29 -5zM333 506h14q-6 0 -16 21v4q-8 15 -13 22q-8 12 -6 18
q3 21 32 17q13 -7 28 -33q19 -41 3 -49h54q-10 4 -4 18q2 2 4 5q11 15 31 49q9 14 27 6q16 -8 10 -26q-16 -35 -33 -52h10q28 -1 29 -29v-84q2 -36 -29 -33h-24v-94q0 -12 8 -12h10q13 -4 14 51q2 16 21 16q20 -3 20 -19q0 -99 -54 -93h-22q-41 2 -41 37v114h-20
q0 -114 -82 -153q-26 -11 -39 7q-12 19 13 32q66 26 65 114h-13q-31 -2 -30 29v88q0 29 33 29zM458 409v47q-2 6 -8 8h-96q-8 -2 -8 -8v-46q0 -8 8 -8h96q8 -1 8 7z" />
    <glyph glyph-name="qiyerenzheng" unicode="&#xe67d;" horiz-adv-x="1280" 
d="M434 557q2 3 14 17q13 13 42 20q9 4 23 4h94q29 0 46 -12q16 -10 17 -12t6.5 -7t8.5 -9l61 -87q3 -5 1 -14.5t-7 -12.5v0q-4 -4 -20.5 -3.5t-19.5 5.5l-44 63q-10 14 -19 21q-12 8 -30 8h-93q-18 0 -29 -8q-10 -8 -20 -21l-45 -63q-3 -5 -18 -5.5t-19 3.5q-5 3 -5 9
q-2 21 -2 22zM699 398q5 0 9 -10.5t4 -17.5v-1q0 -7 -4 -17t-9 -10h-108v-97h129q5 0 9 -10t4 -17v-1q0 -8 -4 -18.5t-9 -10.5h-320q-5 0 -9 10.5t-4 18.5v1q0 7 4 17t9 10h27v151q0 5 9.5 10t15.5 5h2q6 0 14 -4.5t8 -10.5v-151h63v237q0 -3 4.5 -0.5t11 6t8.5 3.5h1
q7 0 17 -4.5t10 -10.5v-78h108zM1070 546h-268q-9 0 -15 -6t-6 -14.5t6 -14.5t15 -6h268q9 0 14.5 6t5.5 14.5t-5.5 14.5t-14.5 6v0zM1070 445h-268q-9 0 -15 -6t-6 -14t6 -14t15 -6h268q9 0 14.5 6t5.5 14t-5.5 14t-14.5 6v0zM894 325q0 8 -6 14t-14 6h-72q-9 0 -15 -6
t-6 -14.5t6 -14.5t15 -6h72q8 0 14 6t6 15v0zM790 -55q-44 -9 -89 -9q-91 0 -174 35.5t-143.5 95.5t-96 143t-35.5 174.5t35.5 174.5t96 143.5t143.5 96t174 35.5t174.5 -35.5t143.5 -96t95.5 -143.5t35.5 -174q0 -55 -14 -111q29 -21 51 -50q25 79 25 161
q0 104 -40.5 198.5t-109 163t-163 109t-198.5 40.5t-198.5 -40.5t-163 -109t-109 -163t-40.5 -198.5t40.5 -199t109 -163t163 -108.5t198.5 -40.5q69 0 136 18q-27 23 -47 53zM1008 273q-83 0 -142 -58.5t-59 -141.5t59 -142t142 -59t141.5 59t58.5 142t-58.5 141.5
t-141.5 58.5zM1144 126l-148 -145q-8 -7 -19 -7t-19 7l-86 85q-8 7 -8 18t8 19t19 8t19 -8l67 -65l129 126q8 8 19 8t19 -8t8 -19t-8 -19z" />
    <glyph glyph-name="smrz" unicode="&#xe685;" horiz-adv-x="1279" 
d="M967 592h-268q-8 0 -14 -5.5t-6 -14t6 -14.5t14 -6h268q9 0 15 6t6 14.5t-6 14t-15 5.5v0zM967 492h-268q-8 0 -14 -6t-6 -14t6 -14t14 -6h268q9 0 15 6t6 14t-6 14t-15 6v0zM791 371q0 9 -5.5 15t-14.5 6h-72q-8 0 -14 -6t-6 -14.5t6 -14.5t14 -6h72q9 0 14.5 6t5.5 14
v0zM430 341q-6 -7 -16 -13q-14 -9 -32 -13.5t-34.5 -10.5t-29 -16t-15.5 -29q-5 -33 -2 -54t8 -25q3 -2 15 -5q11 -3 28 -5q18 -3 38 -5t41 -4q23 -2 41 -3q19 -1 34.5 -1t35.5 1q18 1 42 3q22 2 43 4q12 2 24 3v143q-3 1 -8 2q-15 5 -28 10q-14 5 -22 12.5t-12 15
t-4.5 15.5t1.5 16q2 13 8 18q5 5 16 13q4 4 7 10t6 13q3 8 5 16q5 2 10 6q4 4 7 10t4 17q1 8 0 14t-3 9q-2 4 -6 7q0 21 -2 41q-3 18 -9 37.5t-19 36.5q-6 7 -16 14t-22.5 12.5t-27.5 9.5q-15 3 -29 3q-12 0 -24.5 -1.5t-25.5 -6.5q-12 -6 -24 -15t-22 -23q-11 -15 -16 -34
t-8 -35q-2 -19 -2 -39q-4 -5 -6 -10q-2 -6 -3 -13t2 -15q3 -9 6.5 -13.5t6.5 -7.5q4 -2 7 -4q3 -9 5 -16q3 -6 6 -13q3 -6 7 -10q9 -8 16 -14q7 -7 8 -19q1 -7 1 -14t-2.5 -13t-8.5 -12v0zM718 -57q-44 -9 -89 -9q-91 0 -174 35.5t-143.5 96t-96 143.5t-35.5 174t35.5 174.5
t96 143.5t143.5 95.5t174 35.5t174.5 -35.5t143.5 -95.5t95.5 -143.5t35.5 -174.5q0 -54 -14 -111q29 -21 50 -49q26 78 26 160q0 104 -40.5 198.5t-109 163t-163 109t-198.5 40.5t-198.5 -40.5t-163 -109t-109 -163t-40.5 -198.5t40.5 -198.5t109 -163t163 -109
t198.5 -40.5q69 0 136 18q-27 23 -47 53v0zM919 276q-83 0 -142 -59t-59 -142t59 -142t142 -59t141.5 59t58.5 142t-58.5 142t-141.5 59zM1055 129l-148 -145q-8 -8 -19 -8t-19 8l-86 84q-8 8 -8 19t8 18.5t19 7.5t19 -8l67 -65l129 126q8 8 19 8t19 -8t8 -19t-8 -18z" />
    <glyph glyph-name="xinzengwenjian" unicode="&#xe69e;" 
d="M184 65q-17 0 -29 12t-12 29v422q0 17 12 29t29 12h624q17 0 29 -12t12 -29v-93q27 -17 50 -39v185q0 17 -5.5 29t-14 17t-16.5 7.5t-14 2.5l-6 -1h-25h-59.5h-80.5h-75.5h-59t-16.5 0q-8 0 -15 2.5t-10 5.5l-3 2q-14 23 -37 59q-12 17 -25.5 25t-20.5 8l-8 -1h-246
q-56 0 -68 -53l-1 -12v-593q0 -20 5.5 -34.5t13.5 -19.5t16.5 -8.5t13.5 -2t6 0.5v0h305q-16 23 -28 50h-241zM694.5 419q-97.5 0 -166 -69t-68.5 -166t68.5 -165.5t166 -68.5t166 68.5t68.5 165.5t-68.5 166t-166 69zM815 151h-88v-87q0 -14 -9.5 -23.5t-23 -9.5t-23 9.5
t-9.5 23.5v87h-88q-13 0 -23 9.5t-10 23.5t10 23.5t23 9.5h88v87q0 14 9.5 23.5t23 9.5t23 -9.5t9.5 -23.5v-87h88q13 0 22.5 -9.5t9.5 -23t-9.5 -23.5t-22.5 -10z" />
    <glyph glyph-name="email" unicode="&#xe68d;" 
d="M958 609q0 48 -34 82.5t-82 34.5h-661q-48 0 -82 -34.5t-34 -82.5v-449q0 -48 34 -82t82 -34h661q48 0 82 34t34 82v449zM844 684q16 0 33 -9l-346 -328l-2 -2q-5 -4 -15.5 -4t-15.5 4l-2 2l-353 324q19 13 40 13h661zM916 160q0 -31 -21 -52.5t-51 -21.5h-661
q-31 0 -53 21.5t-22 52.5v448q0 15 7 30l351 -322q17 -18 47.5 -18t46.5 18l347 329q9 -16 9 -37v-448z" />
    <glyph glyph-name="xin" unicode="&#xe67a;" 
d="M512 -26v0q-9 0 -15 6l-126 127q-150 151 -188 189q-105 105 -116 223q-12 119 74 206q84 84 194 66q90 -14 177 -95q87 81 177 95q110 18 194 -66q86 -87 74 -206q-11 -118 -116 -223q-35 -34 -314 -316q-6 -6 -15 -6zM299 752q-71 0 -128 -57q-73 -72 -63 -172
q10 -103 105 -198l188 -188l111 -113q253 255 299 301q95 95 105 198q10 100 -63 172q-69 69 -157 55q-85 -14 -169 -98q-6 -6 -15 -6t-15 6q-84 84 -169 98q-15 2 -29 2z" />
    <glyph glyph-name="iconfontqiehuan" unicode="&#xe687;" horiz-adv-x="1366" 
d="M928 531v0v0l-86 87q-6 5 -13 2.5t-7 -10.5v-68q0 -4 -3.5 -7.5t-7.5 -3.5h-333q-5 0 -8.5 -3.5t-3.5 -7.5v-31q0 -4 3.5 -7.5t8.5 -3.5h476q8 0 11 7t-3 12l-34 34v0zM503 307v0v0l87 -87q5 -6 12.5 -3t7.5 11v67q0 5 3 8.5t8 3.5h333q5 0 8 3t3 8v30q0 5 -3 8.5t-8 3.5
h-477q-7 0 -10 -7t2 -13l34 -33v0zM717 466zM716 -29q-91 0 -174 35.5t-143 95.5t-95.5 143t-35.5 174t35.5 174t95.5 143t143 95.5t174 35.5t174 -35.5t143 -95.5t95.5 -143t35.5 -174t-35.5 -174t-95.5 -143t-143 -95.5t-174 -35.5zM715.5 830q-111.5 0 -206 -55
t-149.5 -150t-55 -206.5t55 -206t149.5 -149.5t206 -55t206.5 55t150 149.5t55 206t-55 206.5t-150 150t-206.5 55z" />
    <glyph glyph-name="star1" unicode="&#xe680;" 
d="M248 -42q-6 0 -12 4q-10 8 -8 20l48 283l-205 200q-9 9 -5 21t17 14l283 41l127 257q6 12 19 12t18 -12l127 -257l284 -41q12 -2 16 -14t-5 -21l-205 -200l48 -283q3 -12 -7.5 -20t-22.5 -2l-253 134l-254 -134q-4 -2 -10 -2zM130 465l183 -178q8 -8 6 -19l-43 -251
l226 119q10 5 19 0l226 -119l-43 251q-2 11 6 19l183 178l-253 37q-10 1 -15 11l-113 229l-113 -229q-5 -10 -16 -11z" />
    <glyph glyph-name="flowers" unicode="&#xe681;" 
d="M150 111q-8 -1 -14 -6.5t-5.5 -14t6 -14t14.5 -5.5v0q8 -1 17 -1.5t40.5 -6t58 -15t61.5 -30t60 -49.5q6 -7 15 -7q8 0 13 6q6 5 6.5 13.5t-4.5 14.5q-29 32 -67 55.5t-69 34.5t-64.5 17t-46.5 7t-21 1zM877 111q-8 0 -20.5 -1t-45.5 -7t-64 -16.5t-69.5 -34.5t-68.5 -56
q-5 -6 -5 -14t7 -14q5 -5 13 -5q9 0 15 6q26 28 60.5 49t62 30.5t57 15t40.5 6.5t18 1v0q8 0 14 5.5t6 14t-6 14.5t-14 6zM832 308q52 88 63 194q10 104 -23 184q-5 12 -18 12q-107 2 -195 -41q-25 42 -66 96q-27 35 -45.5 53.5t-24 21t-12 2.5t-12 -2t-23.5 -20.5
t-46 -53.5q-41 -54 -65 -95q-87 41 -191 39q-13 0 -18 -12q-34 -80 -23 -184q11 -106 62 -194q45 -75 112 -120.5t148 -55.5q2 -1 5 -2q15 -1 33 -1v-175q0 -9 6 -14.5t14.5 -5.5t14 5.5t5.5 14.5v175q19 0 35 1q2 1 5 2q81 10 148 55.5t111 120.5zM703 223
q-62 -44 -139 -52q-2 0 -4 -1q-25 -2 -47 -2t-46 2q-1 1 -3 1q-77 8 -139 52q-57 40 -95 106q-45 75 -56.5 166.5t14.5 162.5q97 -1 175 -44q8 -4 16 -1.5t12 10.5q16 33 58 89t63 75q20 -20 62 -76t58 -90q4 -8 12.5 -10.5t15.5 1.5q80 45 179 46q26 -71 14.5 -162.5
t-55.5 -166.5q-39 -66 -95 -106z" />
    <glyph glyph-name="star3" unicode="&#xe682;" 
d="M777 -44q-5 0 -9 2l-255 135l-256 -135q-11 -5 -21 2t-8 19l49 285l-206 201q-9 9 -5.5 20.5t16.5 13.5l285 42l128 258q5 11 17.5 11t18.5 -11l127 -258l286 -42q12 -2 16 -13.5t-5 -20.5l-207 -201l49 -285q2 -12 -8 -19q-5 -4 -12 -4v0z" />
    <glyph glyph-name="xin2" unicode="&#xe683;" 
d="M513 -28v0q-9 0 -15 6l-127 128q-157 158 -188 189q-105 106 -117 224q-12 119 75 206q84 84 193 67q91 -15 179 -96q87 81 178 96q110 17 194 -67q86 -87 75 -206q-12 -118 -118 -224q-82 -82 -315 -317q-6 -6 -14 -6v0z" />
    <glyph glyph-name="xiaolian" unicode="&#xe695;" 
d="M512 -1q-104 0 -193 51.5t-140.5 140.5t-51.5 193t51.5 193t140.5 140.5t193 51.5t193 -51.5t140.5 -140.5t51.5 -193t-51.5 -193t-140.5 -140.5t-193 -51.5zM512 721q-91 0 -168.5 -45.5t-123 -123t-45.5 -168.5t45.5 -168.5t123 -123t168.5 -45.5t168.5 45.5t123 123
t45.5 168.5t-45.5 168.5t-123 123t-168.5 45.5zM512 156q-57 0 -108.5 23.5t-88.5 67.5q-6 7 -5.5 17t8 16.5t17.5 5.5t17 -8q30 -35 72 -54.5t88 -19.5t88 19.5t72 54.5q7 7 17 8t17.5 -5.5t8 -16.5t-5.5 -17q-37 -44 -88.5 -67.5t-108.5 -23.5zM389.5 386q-15.5 0 -27 11
t-11.5 27v53q0 16 11.5 27.5t27 11.5t27 -11.5t11.5 -27.5v-53q0 -16 -11.5 -27t-27 -11zM634.5 386q-15.5 0 -27 11t-11.5 27v53q0 16 11.5 27.5t27 11.5t27 -11.5t11.5 -27.5v-53q0 -16 -11.5 -27t-27 -11z" />
    <glyph glyph-name="star2" unicode="&#xe684;" 
d="M960 485.5q-4 11.5 -16 13.5l-286 42l-127 258q-6 11 -18.5 11t-17.5 -11l-128 -258l-285 -42q-13 -2 -16.5 -13.5t5.5 -20.5l206 -201l-49 -285q-2 -12 8 -19.5t21 -1.5l256 134l255 -134q4 -2 9 -2q7 0 12 4q10 7 8 19l-49 285l207 201q9 9 5 20.5zM713 285
q-8 -7 -6 -18l44 -254l-229 120q-4 2 -9 2h-1v609l1 1l114 -232q5 -9 15 -10l256 -38z" />
    <glyph glyph-name="yoududetoxic6" unicode="&#xe69f;" horiz-adv-x="1025" 
d="M318 378h-147q-23 0 -38 -17t-11 -40q12 -76 51.5 -141t99.5 -111q18 -13 40 -8.5t33 23.5q40 71 73 129q-45 25 -72 69t-29 96zM512 578q49 0 92 -23l80 122q13 19 6 41.5t-28 31.5q-72 29 -150 29q-73 0 -140 -25q-22 -9 -29.5 -30.5t4.5 -41.5q30 -51 75 -126
q43 22 90 22zM705 406q1 -12 1 -22q0 -51 -24.5 -94.5t-66.5 -69.5l70 -123q12 -22 38 -24q22 -2 43 17q60 55 93.5 124t39.5 130q2 24 -9 38q-13 16 -34 17q-68 3 -151 7zM512 521q-48 0 -86 -31q-51 -41 -51 -106l1 -6q2 -45 30.5 -80t71.5 -46q17 -5 34 -5q18 0 36 5
q44 12 72.5 48.5t28.5 83.5q0 57 -40 97t-97 40zM1024 392q-2 134 -68 247.5t-177 180.5q-122 76 -267 76q-136 0 -254 -68q-118 -67 -188 -185.5t-70 -258.5v-3v-3q2 -140 73.5 -257.5t190.5 -184.5q115 -64 248 -64q140 0 260 71q115 68 183.5 185.5t68.5 255.5v4.5v3.5z
M734 10q-102 -61 -222 -61q-113 0 -211 55q-101 56 -161.5 156t-62.5 218v6q0 120 60 220.5t161 157.5q99 57 214 57q121 0 225 -63q94 -57 150.5 -152.5t59.5 -208.5v-11q0 -117 -58 -216.5t-155 -157.5z" />
    <glyph glyph-name="smrz2" unicode="&#xe686;" 
d="M812 572q0 20 -16.5 35t-37.5 15v0h-529q-21 0 -36 -15t-15 -36v-350q0 -21 15 -36.5t36 -15.5h278q-16 36 -16 77v2.5v3.5t1 3l-1 -1q-14 -12 -45 -12h-165q-46 3 -48 49q0 12 6 23q28 57 90 74q-22 11 -35.5 32t-13.5 46q0 35 26 60.5t62.5 25.5t62.5 -25.5t26 -60.5
q0 -25 -13.5 -46t-35.5 -32q64 -17 89 -71v0q2 -5 5 -10q23 67 87 102l-1 1h-68q-6 0 -10 4.5t-4 10t4 10t10 4.5h97q9 0 13 -11v0q0 -1 1 -2q23 6 50 6q78 0 131 -47v187v0zM368 366q-33 0 -61 -17t-43 -47v0q-3 -6 -3 -10q1 -26 21 -28h165q6 0 15 4t12 9q6 8 -1 25
q-12 29 -41 46.5t-64 17.5v0zM369 406q25 0 42.5 17.5t17.5 42t-17.5 42t-42.5 17.5t-43 -17.5t-18 -42t18 -42t43 -17.5v0zM681 410q-69 0 -118.5 -48t-49.5 -116t49.5 -116t118.5 -48t118 48t49 116t-49 116t-118 48v0zM662 150q-4 -4 -10 -4t-10 4l-62 61q-9 10 0.5 19.5
t19.5 -0.5l52 -51l113 106q10 10 19.5 0t-0.5 -20zM505 490q0 6 4.5 10.5t9.5 4.5h198q6 0 10 -4.5t4 -10.5t-4 -10t-10 -4h-198q-6 0 -10 4t-4 10v0zM992 384q0 -98 -38 -186.5t-102.5 -153t-153 -102.5t-186.5 -38t-186.5 38t-153 102.5t-102.5 153t-38 186.5t38 186.5
t102.5 153t153 102.5t186.5 38t186.5 -38t153 -102.5t102.5 -153t38 -186.5z" />
    <glyph glyph-name="card1" unicode="&#xe65c;" 
d="M856 709h-688q-42 0 -72 -30t-30 -72v-442q0 -43 30 -73t72 -30h688q42 0 72 30t30 73v442q0 42 -30 72t-72 30zM168 670h688q26 0 44.5 -18.5t18.5 -44.5v-223h-814v223q0 26 18.5 44.5t44.5 18.5zM856 101h-688q-26 0 -44.5 18.5t-18.5 45.5v28h814v-28
q0 -27 -18.5 -45.5t-44.5 -18.5z" />
    <glyph glyph-name="leimu" unicode="&#xe65d;" 
d="M395 896h-311q-34 0 -58.5 -24.5t-24.5 -59.5v-310q0 -34 24.5 -58.5t58.5 -24.5h311q34 0 58.5 24.5t24.5 58.5v310q-1 35 -25 59.5t-58 24.5zM435 502q0 -16 -12 -28t-28 -12h-311q-16 0 -28 12t-12 28v310q0 17 12 29t28 12h311q16 0 28 -12t12 -29v-310zM395 349
h-311q-34 0 -58.5 -24.5t-24.5 -58.5v-309q0 -34 24.5 -58.5t58.5 -24.5h311q34 0 58.5 24.5t24.5 58.5v310q-1 35 -25 58.5t-58 23.5zM435 -43q0 -16 -12 -28.5t-28 -12.5h-311q-16 0 -28 12.5t-12 28.5v310q0 17 12 29t28 12h311q16 0 28 -12t12 -29v-310zM940 349h-311
q-34 0 -58.5 -24.5t-24.5 -58.5v-310q0 -35 24.5 -59.5t58.5 -24.5h311q34 0 58.5 24.5t24.5 59.5v310q0 35 -24.5 59t-58.5 24zM982 -43q0 -16 -12 -28.5t-29 -12.5h-312q-16 0 -28 12.5t-12 28.5v310q0 17 12 29t28 12h311q16 0 28 -12t12 -29v-310h2zM940 896h-311
q-34 0 -58.5 -24.5t-24.5 -59.5v-310q0 -34 24.5 -58.5t58.5 -24.5h311q34 0 58.5 24.5t24.5 58.5v310q0 35 -24.5 59.5t-58.5 24.5zM982 502q0 -16 -12 -28t-29 -12h-312q-16 0 -28 12t-12 28v310q0 17 12 29t28 12h311q16 0 28 -12t12 -29v-310h2z" />
    </font>
</defs>
</svg>
